<svg width="135" height="45" viewBox="0 0 135 45" fill="none" xmlns="http://www.w3.org/2000/svg">
<path d="M123.902 0.00014625H10.7265C10.314 0.00014625 9.90639 0.00014625 9.49494 0.00239625C9.15052 0.00464625 8.80885 0.0111825 8.46112 0.0166837C7.7057 0.0255733 6.95206 0.092032 6.20674 0.215483C5.46246 0.34162 4.74151 0.579426 4.06825 0.920857C3.39581 1.26518 2.78139 1.71258 2.24727 2.24685C1.71034 2.77961 1.26277 3.39541 0.921769 4.07058C0.579825 4.74439 0.342721 5.46645 0.218644 6.21181C0.0933873 6.95623 0.0259857 7.70923 0.0170438 8.46406C0.00660375 8.80899 0.00550125 9.15506 0 9.50003V35.5036C0.00550125 35.8529 0.00660375 36.1913 0.0170438 36.5407C0.0259884 37.2955 0.0933901 38.0485 0.218644 38.7928C0.342378 39.5386 0.579497 40.2611 0.921769 40.9352C1.26262 41.6082 1.71025 42.2215 2.24727 42.7513C2.77936 43.2879 3.39418 43.7356 4.06825 44.0773C4.7415 44.4197 5.46238 44.6589 6.20674 44.787C6.95218 44.9094 7.70575 44.9759 8.46112 44.9859C8.80885 44.9935 9.15052 44.9979 9.49494 44.9979C9.90638 45.0001 10.314 45.0001 10.7265 45.0001H123.902C124.306 45.0001 124.717 45.0001 125.121 44.9979C125.464 44.9979 125.815 44.9935 126.158 44.9859C126.912 44.9764 127.664 44.9099 128.408 44.787C129.155 44.658 129.878 44.4188 130.555 44.0773C131.228 43.7354 131.843 43.2877 132.374 42.7513C132.91 42.2194 133.359 41.6065 133.704 40.9352C134.043 40.2606 134.278 39.5382 134.4 38.7928C134.526 38.0484 134.595 37.2956 134.609 36.5407C134.613 36.1913 134.613 35.8529 134.613 35.5036C134.622 35.0949 134.622 34.6884 134.622 34.273V10.7283C134.622 10.3163 134.622 9.90762 134.613 9.50003C134.613 9.15506 134.613 8.80899 134.609 8.46402C134.595 7.70912 134.526 6.95629 134.4 6.21177C134.278 5.46684 134.043 4.74484 133.704 4.07053C133.009 2.71724 131.908 1.61567 130.555 0.920756C129.878 0.58016 129.155 0.342417 128.408 0.215381C127.664 0.0913869 126.912 0.024905 126.158 0.0165262C125.815 0.0110362 125.464 0.00444375 125.121 0.00225C124.717 0 124.306 0 123.902 0V0.00014625Z" fill="white"/>
<path d="M28.1213 22.375C28.1339 21.3986 28.3932 20.4412 28.8753 19.5919C29.3573 18.7426 30.0463 18.0291 30.8782 17.5176C30.3497 16.7629 29.6525 16.1417 28.842 15.7035C28.0315 15.2654 27.1299 15.0222 26.209 14.9934C24.2445 14.7872 22.34 16.1689 21.3389 16.1689C20.3184 16.1689 18.7771 15.0139 17.1174 15.048C16.0438 15.0827 14.9975 15.3949 14.0805 15.9542C13.1634 16.5134 12.4069 17.3007 11.8846 18.2393C9.62207 22.1566 11.3097 27.9136 13.477 31.0801C14.5614 32.6306 15.8287 34.3625 17.4869 34.3011C19.1096 34.2338 19.7157 33.2664 21.6744 33.2664C23.615 33.2664 24.1836 34.3011 25.8755 34.262C27.6167 34.2338 28.7138 32.7047 29.7601 31.1395C30.5392 30.0347 31.1387 28.8136 31.5365 27.5216C30.5249 27.0937 29.6616 26.3775 29.0543 25.4623C28.4469 24.5471 28.1225 23.4734 28.1213 22.375Z" fill="#282739"/>
<path d="M24.9256 12.9113C25.875 11.7716 26.3427 10.3066 26.2295 8.82764C24.779 8.97998 23.4392 9.6732 22.477 10.7692C22.0065 11.3046 21.6462 11.9275 21.4166 12.6022C21.187 13.277 21.0927 13.9904 21.139 14.7016C21.8644 14.7091 22.5822 14.5518 23.2381 14.2417C23.894 13.9316 24.471 13.4767 24.9256 12.9113V12.9113Z" fill="#282739"/>
<path d="M47.5895 30.5321H42.2645L40.9857 34.3081H38.7302L43.774 20.3379H46.1174L51.1612 34.3081H48.8672L47.5895 30.5321ZM42.816 28.7897H47.037L44.9562 22.6615H44.8979L42.816 28.7897Z" fill="#282739"/>
<path d="M62.0541 29.2158C62.0541 32.3809 60.36 34.4145 57.8035 34.4145C57.1559 34.4484 56.5118 34.2992 55.9451 33.984C55.3783 33.6689 54.9117 33.2005 54.5988 32.6325H54.5504V37.6774H52.4597V24.1225H54.4834V25.8166H54.5219C54.8492 25.2513 55.3236 24.7853 55.8947 24.4683C56.4658 24.1512 57.1121 23.9949 57.765 24.0159C60.3501 24.0159 62.0541 26.0594 62.0541 29.2158ZM59.9052 29.2158C59.9052 27.1536 58.8395 25.7979 57.2135 25.7979C55.6161 25.7979 54.5417 27.1822 54.5417 29.2158C54.5417 31.268 55.6161 32.6424 57.2135 32.6424C58.8395 32.6424 59.9051 31.2966 59.9051 29.2158H59.9052Z" fill="#282739"/>
<path d="M73.2651 29.2158C73.2651 32.3809 71.5705 34.4145 69.0139 34.4145C68.3663 34.4484 67.7223 34.2992 67.1555 33.984C66.5887 33.6689 66.1222 33.2005 65.8092 32.6325H65.7609V37.6774H63.6702V24.1225H65.6938V25.8166H65.7323C66.0596 25.2513 66.5341 24.7853 67.1051 24.4683C67.6762 24.1512 68.3226 23.9949 68.9755 24.0159C71.5606 24.0159 73.2651 26.0594 73.2651 29.2158ZM71.1156 29.2158C71.1156 27.1536 70.05 25.7979 68.424 25.7979C66.8266 25.7979 65.7521 27.1822 65.7521 29.2158C65.7521 31.268 66.8266 32.6424 68.424 32.6424C70.05 32.6424 71.1156 31.2966 71.1156 29.2158V29.2158Z" fill="#282739"/>
<path d="M80.6732 30.4157C80.8281 31.8011 82.174 32.7107 84.0131 32.7107C85.7753 32.7107 87.0431 31.801 87.0431 30.5519C87.0431 29.4675 86.2784 28.8183 84.4679 28.3733L82.6573 27.9371C80.092 27.3175 78.9011 26.1178 78.9011 24.171C78.9011 21.7606 81.0017 20.105 83.9834 20.105C86.9365 20.105 88.9602 21.7606 89.0283 24.171H86.9178C86.7915 22.7769 85.639 21.9353 83.9548 21.9353C82.2706 21.9353 81.1181 22.7868 81.1181 24.026C81.1181 25.0137 81.8542 25.5949 83.6549 26.0398L85.1941 26.4177C88.0604 27.0955 89.2502 28.2469 89.2502 30.2904C89.2502 32.904 87.1694 34.541 83.8581 34.541C80.7599 34.541 78.6682 32.9425 78.533 30.4156L80.6732 30.4157Z" fill="#282739"/>
<path d="M93.7645 21.7123V24.1227H95.7014V25.7783H93.7645V31.3934C93.7645 32.2657 94.1523 32.6722 95.0038 32.6722C95.2337 32.6682 95.4633 32.6521 95.6915 32.6239V34.2696C95.3087 34.3411 94.9196 34.3735 94.5303 34.3663C92.4681 34.3663 91.6639 33.5918 91.6639 31.6164V25.7783H90.183V24.1227H91.6639V21.7123H93.7645Z" fill="#282739"/>
<path d="M96.822 29.2159C96.822 26.0112 98.7095 23.9974 101.653 23.9974C104.606 23.9974 106.484 26.0112 106.484 29.2159C106.484 32.4294 104.616 34.4344 101.653 34.4344C98.6908 34.4344 96.822 32.4294 96.822 29.2159ZM104.354 29.2159C104.354 27.0176 103.347 25.7201 101.653 25.7201C99.9586 25.7201 98.9512 27.0275 98.9512 29.2159C98.9512 31.4231 99.9586 32.7107 101.653 32.7107C103.347 32.7107 104.354 31.4231 104.354 29.2159H104.354Z" fill="#282739"/>
<path d="M108.208 24.1224H110.202V25.856H110.251C110.386 25.3146 110.703 24.8361 111.149 24.501C111.595 24.1658 112.143 23.9945 112.701 24.0158C112.942 24.015 113.182 24.0411 113.417 24.0938V26.0494C113.113 25.9564 112.795 25.9138 112.478 25.923C112.174 25.9107 111.871 25.9643 111.59 26.08C111.309 26.1958 111.056 26.371 110.849 26.5936C110.642 26.8162 110.486 27.081 110.391 27.3698C110.296 27.6585 110.265 27.9644 110.299 28.2664V34.3078H108.208L108.208 24.1224Z" fill="#282739"/>
<path d="M123.056 31.3165C122.775 33.1655 120.974 34.4344 118.671 34.4344C115.708 34.4344 113.868 32.4492 113.868 29.2643C113.868 26.0695 115.717 23.9974 118.583 23.9974C121.401 23.9974 123.173 25.9332 123.173 29.0215V29.7378H115.979V29.8641C115.946 30.239 115.993 30.6166 116.117 30.9719C116.241 31.3272 116.439 31.6521 116.698 31.925C116.957 32.1979 117.271 32.4125 117.62 32.5546C117.968 32.6967 118.343 32.763 118.719 32.7491C119.213 32.7954 119.709 32.681 120.133 32.4229C120.556 32.1648 120.885 31.7767 121.071 31.3165L123.056 31.3165ZM115.989 28.2766H121.081C121.1 27.9396 121.049 27.6023 120.931 27.2859C120.813 26.9696 120.631 26.681 120.397 26.4382C120.162 26.1955 119.88 26.0038 119.568 25.8754C119.255 25.7469 118.92 25.6843 118.583 25.6915C118.242 25.6895 117.905 25.7549 117.59 25.884C117.275 26.0131 116.988 26.2033 116.747 26.4436C116.506 26.684 116.315 26.9697 116.185 27.2843C116.054 27.5989 115.988 27.9362 115.989 28.2766V28.2766Z" fill="#282739"/>
<path d="M41.3306 12.6601H42.2281C42.3827 12.6793 42.5395 12.6663 42.6887 12.622C42.838 12.5776 42.9764 12.5028 43.0953 12.4022C43.2142 12.3017 43.311 12.1776 43.3796 12.0378C43.4482 11.898 43.487 11.7456 43.4938 11.59C43.4938 10.9709 43.0279 10.571 42.238 10.571C42.0797 10.5489 41.9186 10.5587 41.7642 10.5999C41.6097 10.6411 41.4651 10.7128 41.3388 10.8108C41.2125 10.9088 41.1072 11.0311 41.029 11.1705C40.9508 11.3099 40.9013 11.4636 40.8834 11.6224H39.8979C39.9149 11.3341 39.991 11.0523 40.1216 10.7947C40.2522 10.537 40.4344 10.309 40.6569 10.1249C40.8794 9.9407 41.1374 9.80431 41.4149 9.72419C41.6924 9.64407 41.9834 9.62193 42.2699 9.65915C43.5915 9.65915 44.5221 10.3991 44.5221 11.4642C44.5252 11.821 44.4058 12.1681 44.1839 12.4475C43.962 12.727 43.6509 12.9218 43.3026 12.9995V13.0786C43.7155 13.097 44.1043 13.278 44.3841 13.5822C44.6639 13.8863 44.8118 14.2889 44.7957 14.7019C44.7651 14.9988 44.6756 15.2865 44.5324 15.5484C44.3892 15.8102 44.1951 16.0408 43.9616 16.2267C43.7281 16.4126 43.4598 16.55 43.1726 16.6308C42.8853 16.7117 42.5847 16.7343 42.2886 16.6975C41.9918 16.738 41.6899 16.7183 41.4009 16.6396C41.1119 16.5609 40.8417 16.4248 40.6064 16.2394C40.3711 16.0541 40.1755 15.8232 40.0314 15.5607C39.8872 15.2981 39.7973 15.0092 39.7672 14.7112H40.7681C40.8285 15.3534 41.4185 15.7676 42.2886 15.7676C43.1587 15.7676 43.7267 15.3023 43.7267 14.6464C43.7267 13.9812 43.1916 13.5714 42.2567 13.5714H41.3306V12.6601Z" fill="#282739"/>
<path d="M45.9327 15.1019C45.9327 14.1901 46.6128 13.6644 47.8169 13.5897L49.1891 13.5106V13.0733C49.1891 12.5383 48.8364 12.2361 48.152 12.2361C47.5939 12.2361 47.2083 12.441 47.0962 12.7992H46.1283C46.2305 11.9291 47.0501 11.371 48.1992 11.371C49.4692 11.371 50.1856 12.0032 50.1856 13.0733V16.5345H49.222V15.8226H49.1429C48.9824 16.078 48.7569 16.2862 48.4896 16.4259C48.2223 16.5657 47.9227 16.6319 47.6213 16.618C47.4087 16.6401 47.1937 16.6174 46.9904 16.5514C46.787 16.4854 46.5998 16.3774 46.4407 16.2346C46.2816 16.0918 46.1542 15.9172 46.0667 15.7221C45.9792 15.527 45.9336 15.3157 45.9327 15.1019V15.1019ZM49.1891 14.6691V14.2455L47.952 14.3246C47.2543 14.3713 46.9379 14.6086 46.9379 15.0552C46.9379 15.5112 47.3334 15.7765 47.8773 15.7765C48.0367 15.7926 48.1976 15.7765 48.3507 15.7292C48.5037 15.6818 48.6456 15.6042 48.768 15.5009C48.8904 15.3975 48.9907 15.2707 49.0631 15.1278C49.1354 14.9849 49.1783 14.8289 49.1891 14.6691V14.6691Z" fill="#282739"/>
<path d="M52.8387 12.3103V16.5345H51.839V11.4688H55.1745V12.3102L52.8387 12.3103Z" fill="#282739"/>
<path d="M61.2334 14.0003C61.2334 15.6097 60.4193 16.6189 59.1405 16.6189C58.8266 16.6403 58.5131 16.5716 58.2369 16.4208C57.9607 16.2701 57.7333 16.0436 57.5816 15.768H57.5024V18.2196H56.5027V11.4696H57.4651V12.3067H57.5398C57.6943 12.0215 57.9246 11.7845 58.2054 11.6219C58.4861 11.4594 58.8063 11.3776 59.1306 11.3855C60.4193 11.3855 61.2334 12.3902 61.2334 14.0003ZM60.2051 14.0003C60.2051 12.9302 59.6986 12.2836 58.8516 12.2836C58.0101 12.2836 57.4838 12.9439 57.4838 14.0047C57.4838 15.0604 58.01 15.7213 58.8472 15.7213C59.6986 15.7213 60.2051 15.0747 60.2051 14.0003Z" fill="#282739"/>
<path d="M62.5649 18.3489V17.4882C62.6731 17.5019 62.7821 17.5081 62.8912 17.5068C63.1042 17.5226 63.3155 17.4592 63.4846 17.3287C63.6537 17.1982 63.7687 17.0099 63.8074 16.7999L63.8821 16.5532L62.0485 11.4688H63.1373L64.4073 15.4925H64.4864L65.7521 11.4688H66.8122L64.9237 16.7438C64.4908 17.9765 64.0118 18.372 62.9791 18.372C62.8956 18.372 62.6583 18.3627 62.5649 18.3489Z" fill="#282739"/>
<path d="M67.5912 15.0971H68.5866C68.6843 15.5437 69.1029 15.7766 69.6885 15.7766C70.3543 15.7766 70.7629 15.4833 70.7629 15.0274C70.7629 14.539 70.396 14.3061 69.6885 14.3061H68.9304V13.5294H69.6753C70.2795 13.5294 70.5872 13.297 70.5872 12.8735C70.5872 12.5016 70.2894 12.2176 69.6753 12.2176C69.1161 12.2176 68.7074 12.4549 68.6425 12.8548H67.6791C67.7511 12.3953 68.0006 11.9824 68.3739 11.705C68.7472 11.4275 69.2145 11.3076 69.6753 11.3711C70.8794 11.3711 71.5682 11.9155 71.5682 12.7713C71.5739 13.0097 71.4975 13.2427 71.3519 13.4315C71.2063 13.6202 71.0004 13.7533 70.7684 13.8084V13.8875C71.0446 13.9232 71.298 14.0589 71.4807 14.269C71.6633 14.4791 71.7625 14.749 71.7594 15.0274C71.7594 15.9904 70.9398 16.6275 69.6885 16.6275C68.5822 16.6275 67.6835 16.1205 67.5912 15.0971Z" fill="#282739"/>
<path d="M73.1992 16.5345V11.4688H74.1901V14.9531H74.2692L76.6038 11.4688H77.5948V16.5346H76.6038V13.0316H76.5291L74.1901 16.5346L73.1992 16.5345Z" fill="#282739"/>
<path d="M83.0539 12.3111H81.4586V16.5353H80.4578V12.3111H78.8625V11.4696H83.0539V12.3111Z" fill="#282739"/>
<path d="M88.4394 15.1668C88.3032 15.6298 88.0086 16.0302 87.6072 16.2981C87.2058 16.5659 86.723 16.6843 86.2432 16.6324C85.9095 16.6412 85.5778 16.5773 85.2712 16.4451C84.9647 16.3129 84.6906 16.1155 84.4679 15.8667C84.2453 15.6179 84.0794 15.3237 83.9819 15.0044C83.8844 14.6851 83.8575 14.3484 83.9031 14.0177C83.8587 13.6859 83.886 13.3485 83.9833 13.0282C84.0806 12.708 84.2456 12.4124 84.4671 12.1614C84.6886 11.9105 84.9614 11.71 85.267 11.5737C85.5727 11.4373 85.9041 11.3682 86.2388 11.3711C87.6484 11.3711 88.4998 12.3341 88.4998 13.9248V14.2737H84.9227V14.3297C84.9068 14.5156 84.9301 14.7028 84.9909 14.8793C85.0517 15.0557 85.1488 15.2174 85.2758 15.3541C85.4029 15.4908 85.5571 15.5994 85.7287 15.6729C85.9002 15.7464 86.0852 15.7832 86.2718 15.7809C86.5108 15.8095 86.7529 15.7664 86.9673 15.657C87.1817 15.5477 87.3587 15.377 87.4759 15.1668L88.4394 15.1668ZM84.9226 13.5343H87.4803C87.4929 13.3643 87.4698 13.1936 87.4126 13.0331C87.3554 12.8727 87.2652 12.7259 87.1479 12.6023C87.0305 12.4787 86.8887 12.3811 86.7314 12.3156C86.574 12.2501 86.4048 12.2182 86.2344 12.222C86.0615 12.2196 85.8898 12.2519 85.7295 12.3171C85.5693 12.3822 85.4237 12.4788 85.3014 12.6011C85.1791 12.7235 85.0826 12.8691 85.0176 13.0293C84.9525 13.1896 84.9202 13.3613 84.9227 13.5343H84.9226Z" fill="#282739"/>
<path d="M92.6779 11.4688H94.962C95.9529 11.4688 96.5341 11.9708 96.5341 12.7569C96.5356 13.0063 96.4515 13.2487 96.2957 13.4435C96.1399 13.6383 95.9219 13.7736 95.6783 13.8269V13.906C95.9741 13.9247 96.2515 14.0563 96.4531 14.2737C96.6547 14.491 96.7651 14.7775 96.7615 15.0739C96.7615 15.9577 96.0968 16.5345 94.985 16.5345H92.6779V11.4688ZM93.6689 12.2361V13.5479H94.6599C95.2641 13.5479 95.553 13.3155 95.553 12.8871C95.553 12.4921 95.3015 12.2361 94.7708 12.2361L93.6689 12.2361ZM93.6689 14.2829V15.7672H94.8544C95.4454 15.7672 95.7618 15.5062 95.7618 15.0272C95.7618 14.5202 95.4037 14.2829 94.7291 14.2829L93.6689 14.2829Z" fill="#282739"/>
</svg>
