<svg width="35" height="24" viewBox="0 0 35 24" fill="none" xmlns="http://www.w3.org/2000/svg">
<rect x="0.243409" y="0.243409" width="33.5905" height="22.8805" rx="2.6775" fill="white" stroke="#EAEBED" stroke-width="0.486818"/>
<path fill-rule="evenodd" clip-rule="evenodd" d="M9.32751 8.12318C9.04148 8.4658 8.58384 8.73603 8.12619 8.69743C8.06898 8.23417 8.29304 7.74195 8.55523 7.43794C8.84126 7.08567 9.34182 6.83473 9.74703 6.81543C9.7947 7.29799 9.60878 7.77091 9.32751 8.12318ZM9.74222 8.78911C9.33904 8.76562 8.97116 8.91185 8.67401 9.02996C8.48278 9.10597 8.32085 9.17034 8.19766 9.17034C8.05941 9.17034 7.89079 9.10253 7.70147 9.0264C7.4534 8.92664 7.16979 8.81259 6.87238 8.81806C6.19067 8.82772 5.55664 9.21859 5.20864 9.8411C4.49356 11.0861 5.02272 12.9295 5.71396 13.9429C6.05243 14.4448 6.45764 14.9949 6.99156 14.9756C7.22645 14.9666 7.39542 14.894 7.57029 14.8189C7.77161 14.7324 7.98075 14.6426 8.3073 14.6426C8.62253 14.6426 8.82252 14.7301 9.0145 14.8141C9.19704 14.8939 9.37234 14.9706 9.63258 14.9659C10.1856 14.9563 10.5336 14.4641 10.872 13.9622C11.2373 13.4236 11.3978 12.8979 11.4222 12.8181L11.425 12.8089C11.4245 12.8083 11.4199 12.8062 11.412 12.8025C11.2899 12.7459 10.3566 12.3134 10.3477 11.1537C10.3387 10.1802 11.0879 9.68703 11.2058 9.60939C11.213 9.60466 11.2179 9.60148 11.22 9.59982C10.7433 8.88562 9.99965 8.80841 9.74222 8.78911ZM13.5703 14.9128V7.38968H16.3591C17.7988 7.38968 18.8047 8.39341 18.8047 9.8604C18.8047 11.3274 17.7797 12.3408 16.321 12.3408H14.724V14.9128H13.5703ZM14.7239 8.37411H16.0539C17.055 8.37411 17.6271 8.91458 17.6271 9.86523C17.6271 10.8159 17.055 11.3612 16.0491 11.3612H14.7239V8.37411ZM22.6137 14.0104C22.3086 14.5992 21.6364 14.9707 20.9118 14.9707C19.8392 14.9707 19.0907 14.3241 19.0907 13.3493C19.0907 12.3842 19.8154 11.8293 21.1549 11.7472L22.5946 11.6604V11.2454C22.5946 10.6325 22.1989 10.2995 21.4934 10.2995C20.9118 10.2995 20.4875 10.6036 20.4017 11.0668H19.3625C19.3958 10.092 20.3016 9.38267 21.5268 9.38267C22.8473 9.38267 23.7054 10.0824 23.7054 11.1681V14.9128H22.6375V14.0104H22.6137ZM21.2216 14.078C20.6066 14.078 20.2157 13.7788 20.2157 13.3204C20.2157 12.8475 20.5923 12.5724 21.3122 12.529L22.5945 12.4469V12.8716C22.5945 13.5761 22.0034 14.078 21.2216 14.078ZM27.2473 15.2072C26.7849 16.5246 26.2558 16.9589 25.1307 16.9589C25.0449 16.9589 24.7589 16.9493 24.6921 16.93V16.0276C24.7636 16.0372 24.94 16.0469 25.0306 16.0469C25.5407 16.0469 25.8267 15.8297 26.0031 15.2651L26.108 14.9321L24.1534 9.45506H25.3595L26.7182 13.8995H26.742L28.1007 9.45506H29.2734L27.2473 15.2072Z" fill="#282739"/>
</svg>
