<svg width="152" height="45" viewBox="0 0 152 45" fill="none" xmlns="http://www.w3.org/2000/svg">
<path d="M145.522 44.7761H5.59701C2.51866 44.7761 0 42.2575 0 39.1791V5.59702C0 2.51866 2.51866 5.24521e-06 5.59701 5.24521e-06H145.522C148.601 5.24521e-06 151.119 2.51866 151.119 5.59702V39.1791C151.119 42.2575 148.601 44.7761 145.522 44.7761Z" fill="white"/>
<path d="M119.704 33.5821H121.793V19.5882H119.704V33.5821ZM138.518 24.6291L136.124 30.6962H136.052L133.567 24.6291H131.317L135.044 33.1089L132.919 37.8258H135.099L140.841 24.6291H138.518ZM126.673 31.9927C125.988 31.9927 125.034 31.6507 125.034 30.8042C125.034 29.7241 126.223 29.31 127.248 29.31C128.167 29.31 128.598 29.508 129.157 29.7784C128.994 31.0744 127.878 31.9927 126.673 31.9927V31.9927ZM126.925 24.323C125.412 24.323 123.846 24.9893 123.198 26.4656L125.052 27.2396C125.448 26.4656 126.186 26.2133 126.96 26.2133C128.041 26.2133 129.139 26.8618 129.157 28.014V28.1578C128.778 27.9418 127.969 27.6178 126.978 27.6178C124.98 27.6178 122.945 28.7157 122.945 30.7683C122.945 32.6407 124.584 33.8471 126.42 33.8471C127.825 33.8471 128.598 33.217 129.085 32.4789H129.157V33.5589H131.173V28.1936C131.173 25.7096 129.319 24.323 126.925 24.323V24.323ZM114.016 26.3326H111.045V21.5359H114.016C115.577 21.5359 116.464 22.8288 116.464 23.9342C116.464 25.0187 115.577 26.3326 114.016 26.3326ZM113.962 19.5882H108.957V33.5821H111.045V28.2803H113.962C116.277 28.2803 118.553 26.6042 118.553 23.9342C118.553 21.2643 116.277 19.5882 113.962 19.5882ZM86.6698 31.9952C85.2268 31.9952 84.0186 30.7871 84.0186 29.1277C84.0186 27.4508 85.2268 26.2243 86.6698 26.2243C88.0945 26.2243 89.2125 27.4508 89.2125 29.1277C89.2125 30.7871 88.0945 31.9952 86.6698 31.9952V31.9952ZM89.0682 25.4127H88.996C88.5273 24.8538 87.6252 24.3488 86.4892 24.3488C84.1087 24.3488 81.9268 26.4407 81.9268 29.1277C81.9268 31.7968 84.1087 33.8707 86.4892 33.8707C87.6252 33.8707 88.5273 33.3656 88.996 32.7889H89.0682V33.4741C89.0682 35.2958 88.0944 36.2696 86.5255 36.2696C85.2451 36.2696 84.4516 35.3495 84.1266 34.5742L82.3055 35.3316C82.8284 36.594 84.2172 38.145 86.5255 38.145C88.9781 38.145 91.052 36.702 91.052 33.1855V24.6374H89.0682V25.4127ZM92.4946 33.5821H94.5865V19.5878H92.4946V33.5821ZM97.6705 28.9655C97.6163 27.1258 99.0952 26.1883 100.159 26.1883C100.989 26.1883 101.692 26.6029 101.926 27.1985L97.6705 28.9655ZM104.163 27.3786C103.766 26.3143 102.557 24.3488 100.087 24.3488C97.6342 24.3488 95.5966 26.2785 95.5966 29.1098C95.5966 31.7789 97.6163 33.8707 100.321 33.8707C102.504 33.8707 103.766 32.5361 104.289 31.7608L102.666 30.6786C102.125 31.4723 101.385 31.9952 100.321 31.9952C99.2574 31.9952 98.5001 31.5082 98.0129 30.5527L104.379 27.9195L104.163 27.3786ZM53.4446 25.8096V27.8294H58.2776C58.1333 28.9655 57.7546 29.7949 57.1774 30.3721C56.4743 31.0757 55.3742 31.851 53.4446 31.851C50.4689 31.851 48.1426 29.4525 48.1426 26.4769C48.1426 23.5013 50.4689 21.1026 53.4446 21.1026C55.0497 21.1026 56.2216 21.7339 57.0873 22.5455L58.512 21.1209C57.3038 19.9665 55.6986 19.0828 53.4446 19.0828C49.3687 19.0828 45.9423 22.4012 45.9423 26.4769C45.9423 30.5527 49.3687 33.8707 53.4446 33.8707C55.6449 33.8707 57.3038 33.1497 58.6021 31.7968C59.9367 30.4622 60.3516 28.5868 60.3516 27.0721C60.3516 26.6029 60.3157 26.1704 60.2431 25.8096H53.4446ZM65.8463 31.9952C64.4033 31.9952 63.1589 30.805 63.1589 29.1098C63.1589 27.3965 64.4033 26.2243 65.8463 26.2243C67.2888 26.2243 68.5332 27.3965 68.5332 29.1098C68.5332 30.805 67.2888 31.9952 65.8463 31.9952V31.9952ZM65.8463 24.3488C63.213 24.3488 61.0669 26.3505 61.0669 29.1098C61.0669 31.851 63.213 33.8707 65.8463 33.8707C68.479 33.8707 70.6252 31.851 70.6252 29.1098C70.6252 26.3505 68.479 24.3488 65.8463 24.3488ZM76.2715 31.9952C74.8291 31.9952 73.5845 30.805 73.5845 29.1098C73.5845 27.3965 74.8291 26.2243 76.2715 26.2243C77.7141 26.2243 78.9586 27.3965 78.9586 29.1098C78.9586 30.805 77.7141 31.9952 76.2715 31.9952ZM76.2715 24.3488C73.6384 24.3488 71.4927 26.3505 71.4927 29.1098C71.4927 31.851 73.6384 33.8707 76.2715 33.8707C78.9044 33.8707 81.0505 31.851 81.0505 29.1098C81.0505 26.3505 78.9044 24.3488 76.2715 24.3488Z" fill="#282739"/>
<path d="M11.7647 36.2568L11.6815 36.1772C11.3558 35.8326 11.1635 35.2974 11.1635 34.6044V34.7675V10.0108C11.1635 10.0085 11.1635 10.0068 11.1635 10.005C11.1635 10.0072 11.1635 10.009 11.1635 10.0112V10.1747C11.1635 9.4243 11.3877 8.859 11.7633 8.52005L25.6325 22.3889L11.7647 36.2568ZM11.1635 10.0037C11.1635 9.94203 11.1651 9.88214 11.1683 9.82314C11.1651 9.88169 11.1635 9.94203 11.1635 10.0037ZM11.1683 9.82046C11.1683 9.81968 11.1683 9.81878 11.1686 9.81788C11.1683 9.81878 11.1683 9.81968 11.1683 9.82046ZM11.1686 9.81262C11.1686 9.81217 11.1686 9.81173 11.1686 9.81128C11.1686 9.81173 11.1686 9.81217 11.1686 9.81262Z" fill="url(#paint0_linear_4844_60)"/>
<path d="M30.2549 27.1774L30.3603 27.1175L35.8374 24.0054C36.3596 23.7086 36.7077 23.3487 36.8813 22.9679C36.7081 23.3487 36.36 23.709 35.8374 24.0059L30.3603 27.1179L30.2549 27.1774V27.1774ZM30.2562 27.0134L25.6325 22.3889L30.2558 17.7652L35.8374 20.9363C36.5462 21.339 36.9442 21.8581 37.0107 22.3885C37.0107 22.3889 37.0107 22.3898 37.0107 22.3906C36.9442 22.9197 36.5462 23.4392 35.8374 23.8419L30.2562 27.0134" fill="url(#paint1_linear_4844_60)"/>
<path d="M12.7534 36.785C12.3659 36.785 12.0279 36.6591 11.7643 36.4212L11.7647 36.4208C12.0283 36.6587 12.3668 36.785 12.7543 36.785C12.7879 36.785 12.822 36.7841 12.8566 36.7825C12.8215 36.7841 12.787 36.785 12.7534 36.785V36.785ZM12.7538 36.621C12.3664 36.6215 12.0283 36.4951 11.7647 36.2572V36.2569L25.6326 22.3889L30.2562 27.0134L14.0079 36.2455C13.5583 36.5004 13.1324 36.621 12.7538 36.621V36.621ZM11.7608 36.4182C11.7363 36.3959 11.7122 36.3723 11.6886 36.3478L11.7608 36.4182Z" fill="url(#paint2_linear_4844_60)"/>
<path d="M25.6325 22.3889L11.7634 8.52007C12.027 8.28265 12.3646 8.15672 12.7516 8.15672C13.1312 8.15672 13.5574 8.27784 14.0079 8.53317L30.2558 17.7652L25.6325 22.3889V22.3889ZM30.3603 17.6608L14.0079 8.36974C13.5574 8.11429 13.1312 7.99317 12.7516 7.99317C12.7498 7.99317 12.7486 7.99317 12.7468 7.99317C12.749 7.99317 12.7507 7.99317 12.7534 7.99317C13.1321 7.99317 13.5579 8.11384 14.0079 8.36929L30.3603 17.6608V17.6608Z" fill="url(#paint3_linear_4844_60)"/>
<path d="M12.8565 36.7823C13.2084 36.7622 13.5981 36.6411 14.0078 36.4089L30.2548 27.1773L14.0078 36.4089C13.5984 36.6415 13.2084 36.7622 12.8565 36.7823V36.7823ZM11.7642 36.4211L11.7607 36.4181C11.7619 36.419 11.7633 36.4202 11.7642 36.4211ZM11.6885 36.3477L11.6815 36.3407V36.3403C11.6841 36.3429 11.6863 36.3454 11.6885 36.3477Z" fill="white"/>
<path d="M30.2549 27.1774L30.3603 27.1175L30.2549 27.1774Z" fill="url(#paint4_linear_4844_60)"/>
<path d="M12.7542 36.785C12.3668 36.785 12.0282 36.6587 11.7646 36.4208L11.7642 36.4212C11.7633 36.4203 11.7619 36.4191 11.7607 36.4182L11.6885 36.3478C11.6863 36.3456 11.6841 36.343 11.6815 36.3404L11.7646 36.2572C12.0282 36.4951 12.3663 36.6215 12.7537 36.621C13.1323 36.621 13.5582 36.5004 14.0078 36.2455L30.2562 27.0134L30.3603 27.1175L30.2548 27.1774L14.0078 36.409C13.5981 36.6412 13.2084 36.7623 12.8565 36.7825C12.8219 36.7841 12.7878 36.785 12.7542 36.785" fill="url(#paint5_linear_4844_60)"/>
<path d="M11.6815 36.3408C11.3558 35.9962 11.1635 35.461 11.1635 34.7679V34.7675C11.1635 35.461 11.3558 35.9957 11.6815 36.3404V36.3408" fill="white"/>
<path d="M11.6815 36.3405C11.3558 35.9958 11.1635 35.4611 11.1635 34.7676V34.6045C11.1635 35.2975 11.3558 35.8327 11.6815 36.1774L11.7647 36.2569L11.6815 36.3405" fill="url(#paint6_linear_4844_60)"/>
<path d="M11.6815 36.3405L11.7646 36.2569V36.2573L11.6815 36.3405" fill="url(#paint7_linear_4844_60)"/>
<path d="M36.8813 22.9679C36.9674 22.7789 37.0107 22.5848 37.0107 22.3906C37.0107 22.3903 37.0107 22.3898 37.0107 22.3898C37.0107 22.5844 36.9674 22.7785 36.8813 22.9679Z" fill="white"/>
<path d="M30.3603 27.1174L30.2562 27.0133L35.8374 23.8418C36.5462 23.4392 36.9442 22.9197 37.0106 22.3905C37.0106 22.5847 36.9673 22.7788 36.8812 22.9678C36.7076 23.3486 36.3596 23.7085 35.8374 24.0054L30.3603 27.1174Z" fill="url(#paint8_linear_4844_60)"/>
<path d="M37.0107 22.3889V22.3885C37.0102 21.8029 36.6189 21.2175 35.8374 20.7732L30.3603 17.6611H30.3599L30.3603 17.6608L35.8374 20.7727C36.6198 21.217 37.0116 21.8034 37.0107 22.3889Z" fill="#282739"/>
<path d="M37.0107 22.3884C36.9442 21.8581 36.5462 21.339 35.8374 20.9362L30.2557 17.7652L30.3598 17.6611H30.3603L35.8374 20.7731C36.6189 21.2174 37.0102 21.8029 37.0107 22.3884Z" fill="url(#paint9_linear_4844_60)"/>
<path d="M11.1635 10.005C11.1635 10.0046 11.1635 10.0041 11.1635 10.0037C11.1635 10.0041 11.1635 10.0046 11.1635 10.005ZM11.1683 9.8231C11.1683 9.82221 11.1683 9.82131 11.1683 9.82042C11.1683 9.82131 11.1683 9.82221 11.1683 9.8231ZM11.1686 9.81784C11.1686 9.81605 11.1686 9.81437 11.1686 9.81258C11.1686 9.81437 11.1686 9.81605 11.1686 9.81784ZM11.1686 9.81124C11.2334 8.66128 11.8587 7.99702 12.7433 7.9931C12.3598 7.99534 12.0257 8.12128 11.7642 8.35691V8.35646L11.7611 8.3596C11.7336 8.38445 11.7074 8.41075 11.6815 8.43784C11.3877 8.7487 11.2023 9.21437 11.1686 9.81124Z" fill="#282739"/>
<path d="M11.1635 10.1748V10.0113C11.1635 10.009 11.1635 10.0072 11.1635 10.0051C11.1635 10.0047 11.1635 10.0042 11.1635 10.0038C11.1635 9.94208 11.1651 9.88175 11.1683 9.8232C11.1683 9.82231 11.1683 9.82141 11.1683 9.82052C11.1683 9.81973 11.1683 9.81884 11.1686 9.81794C11.1686 9.81615 11.1686 9.81447 11.1686 9.81268C11.1686 9.81223 11.1686 9.81178 11.1686 9.81134C11.2023 9.21447 11.3877 8.7488 11.6815 8.43794L11.7633 8.5201C11.3877 8.85906 11.1635 9.42436 11.1635 10.1748V10.1748ZM11.7611 8.35969L11.7642 8.35656C11.7633 8.3579 11.762 8.3588 11.7611 8.35969Z" fill="url(#paint10_linear_4844_60)"/>
<path d="M30.2557 17.7651L14.0078 8.53308C13.5574 8.27775 13.1311 8.15663 12.7515 8.15663C12.3645 8.15663 12.0269 8.28256 11.7633 8.51999L11.6815 8.43782C11.7073 8.41073 11.7335 8.38443 11.761 8.35957C11.7619 8.35868 11.7633 8.35779 11.7642 8.35689C12.0257 8.12126 12.3597 7.99532 12.7432 7.99308C12.7441 7.99308 12.7453 7.99308 12.7467 7.99308C12.7485 7.99308 12.7497 7.99308 12.7515 7.99308C13.1311 7.99308 13.5574 8.1142 14.0078 8.36965L30.3603 17.6607L30.3598 17.661L30.2557 17.7651Z" fill="url(#paint11_linear_4844_60)"/>
<path d="M48.6901 11.1568C48.7032 12.2194 48.4903 13.0764 48.0529 13.7271H51.4483V8.66091H48.6901V11.1568ZM47.1422 15.9777H46.3171V13.7271H46.9738C47.5554 13.2259 47.8396 12.3698 47.8278 11.1568V7.83579H52.3119V13.7271H53.0619V15.9777H52.2364V14.5522H47.1422V15.9777" fill="#282739"/>
<path d="M48.69 11.1568L48.5781 11.1582L48.579 11.2486C48.5786 12.254 48.3687 13.0568 47.9597 13.6645L47.8427 13.839H51.5602V8.54896H48.5781V11.1577V11.1582L48.69 11.1568H48.802V8.77284H51.3363V13.6152H48.0529V13.7271L48.1457 13.7892C48.5859 13.1341 48.8029 12.2841 48.8029 11.2486L48.802 11.1555L48.69 11.1568H48.802H48.69ZM47.1421 15.9777V15.8657H46.429V13.839H46.9738H47.0153L47.0468 13.8119C47.6519 13.2899 47.9402 12.4201 47.9402 11.2303L47.9397 11.1559V11.1568V7.94773H52.1999V13.839H52.9499V15.8657H52.3483V14.5522V14.4403H47.0302V15.9777H47.1421V15.8657V15.9777H47.2541V14.6642H52.1244V15.9777V16.0896H53.0619H53.1738V13.6152H52.4238V7.72385H47.7158V11.1573V11.1577L47.7163 11.2303C47.7158 12.3886 47.4351 13.1832 46.9007 13.6418L46.9738 13.7271V13.6152H46.317H46.2051V16.0896H47.1421H47.2541V15.9777H47.1421" fill="#282739"/>
<path d="M55.5049 13.1219C56.0025 13.6252 56.6103 13.8766 57.3296 13.8766C58.0489 13.8766 58.6576 13.6252 59.1538 13.1219C59.6515 12.6186 59.9007 11.9753 59.9007 11.1939C59.9007 10.4126 59.6515 9.76928 59.1538 9.26599C58.6576 8.76271 58.0489 8.51129 57.3296 8.51129C56.6103 8.51129 56.0025 8.76271 55.5049 9.26599C55.0086 9.76928 54.7594 10.4126 54.7594 11.1939C54.7594 11.9753 55.0086 12.6186 55.5049 13.1219ZM59.7923 13.6842C59.132 14.3632 58.3112 14.7021 57.3296 14.7021C56.3479 14.7021 55.5267 14.3632 54.8677 13.6842C54.2075 13.0059 53.8783 12.1757 53.8783 11.1939C53.8783 10.2122 54.2075 9.38185 54.8677 8.70371C55.5267 8.02457 56.3479 7.68528 57.3296 7.68528C58.3055 7.68528 59.1246 8.02636 59.7878 8.70808C60.4503 9.3898 60.7818 10.2184 60.7818 11.1939C60.7818 12.1757 60.4517 13.0059 59.7923 13.6842Z" fill="#282739"/>
<path d="M55.5048 13.122L55.4253 13.2007C55.9407 13.7241 56.5839 13.99 57.3296 13.9886C58.0747 13.99 58.7192 13.7241 59.2333 13.2007C59.7524 12.6768 60.0135 11.999 60.0126 11.1941C60.0135 10.3891 59.7524 9.7113 59.2333 9.18742C58.7192 8.66398 58.0747 8.39813 57.3296 8.39947C56.5839 8.39813 55.9407 8.66398 55.4253 9.18742C54.9075 9.7113 54.6465 10.3891 54.6474 11.1941C54.6465 11.999 54.9075 12.6768 55.4253 13.2007L55.5048 13.122L55.5849 13.0433C55.1099 12.5601 54.8725 11.9522 54.8713 11.1941C54.8725 10.4359 55.1099 9.82805 55.5849 9.34481H55.5844C56.0636 8.86167 56.636 8.62469 57.3296 8.62335C58.0226 8.62469 58.5963 8.86167 59.0742 9.34481L59.076 9.3466L59.0742 9.34481C59.5504 9.82805 59.7875 10.4359 59.7887 11.1941C59.7875 11.9522 59.5504 12.5601 59.0742 13.0433C58.5963 13.5264 58.0226 13.7634 57.3296 13.7648C56.636 13.7634 56.0636 13.5264 55.5844 13.0433L55.5048 13.122ZM59.7923 13.6843L59.7122 13.6065C59.0707 14.2641 58.2854 14.589 57.3296 14.5903C56.3733 14.589 55.5884 14.2641 54.9477 13.6065C54.3075 12.9466 53.9914 12.1508 53.9902 11.1941C53.9914 10.2373 54.3075 9.44152 54.9477 8.78163C55.5884 8.12398 56.3733 7.79869 57.3296 7.79734C58.2797 7.79869 59.0629 8.12533 59.7079 8.78645C60.3506 9.44936 60.6685 10.2439 60.6698 11.1941C60.6685 12.1508 60.3515 12.9466 59.7122 13.6065L59.7923 13.6843L59.8726 13.7621C60.5513 13.0651 60.8945 12.2006 60.8936 11.1941C60.8945 10.1932 60.5504 9.33048 59.8683 8.6304C59.1861 7.92764 58.3318 7.57223 57.3296 7.57346C56.3221 7.57223 55.465 7.92596 54.7873 8.62603V8.62559C54.1073 9.32298 53.7654 10.1875 53.7663 11.1941C53.7654 12.2006 54.1073 13.0651 54.7873 13.7625V13.7621C55.465 14.4622 56.3221 14.8151 57.3296 14.8142C58.3366 14.8151 59.1936 14.4622 59.8726 13.7621L59.7923 13.6843Z" fill="#282739"/>
<path d="M65.1261 14.7021C64.1379 14.7021 63.3093 14.3677 62.6403 13.6982C61.97 13.0292 61.6367 12.1943 61.6367 11.1939C61.6367 10.1934 61.97 9.35868 62.6403 8.68972C63.3093 8.02021 64.1379 7.68528 65.1261 7.68528C66.1384 7.68528 66.9614 8.05133 67.5932 8.78286L66.9919 9.36483C66.5363 8.79551 65.9132 8.51129 65.1261 8.51129C64.3937 8.51129 63.7758 8.75834 63.2729 9.25245C62.7692 9.74655 62.5178 10.3938 62.5178 11.1939C62.5178 11.9941 62.7692 12.6418 63.2729 13.1354C63.7758 13.6295 64.3937 13.8766 65.1261 13.8766C65.9329 13.8766 66.6203 13.5516 67.19 12.9015L67.79 13.5014C67.483 13.8704 67.0991 14.1629 66.6355 14.3781C66.1733 14.5941 65.6693 14.7021 65.1261 14.7021" fill="#282739"/>
<path d="M65.1261 14.7023V14.5903C64.1628 14.589 63.3692 14.2676 62.7194 13.6191C62.07 12.9698 61.7495 12.1696 61.7486 11.1941C61.7495 10.2185 62.07 9.41835 62.7194 8.76899C63.3692 8.12007 64.1628 7.79869 65.1261 7.79734C66.1117 7.79914 66.8953 8.14805 67.5083 8.85596L67.5931 8.78298L67.5153 8.70249L66.9141 9.28492L66.9919 9.36496L67.0793 9.29499C66.6045 8.69947 65.9394 8.39779 65.1261 8.39947C64.3682 8.39858 63.7163 8.65884 63.1947 9.17253C62.6677 9.68813 62.4045 10.3711 62.4058 11.1941C62.4045 12.017 62.6677 12.7009 63.1947 13.2156C63.7163 13.7293 64.3682 13.9895 65.1261 13.9886C65.9634 13.99 66.6889 13.6462 67.2739 12.9755L67.1899 12.9016L67.1108 12.9807L67.7108 13.5806L67.7899 13.5015L67.7037 13.4303C67.4073 13.7861 67.0382 14.0678 66.5882 14.2768C66.1409 14.4858 65.6548 14.5899 65.1261 14.5903V14.7023V14.8142C65.684 14.8142 66.2053 14.7032 66.6827 14.4797C67.1602 14.2584 67.5582 13.9554 67.876 13.5732L67.9411 13.495L67.2692 12.8225L67.1843 12.7376L67.1056 12.8277C66.552 13.4578 65.9023 13.7634 65.1261 13.7648C64.4186 13.7634 63.8357 13.5299 63.3516 13.0555H63.3513C62.8702 12.5832 62.6306 11.9715 62.6297 11.1941C62.6306 10.4166 62.8702 9.80578 63.3513 9.3326H63.3516C63.8357 8.8582 64.4186 8.62469 65.1261 8.62335C65.8865 8.62514 66.4676 8.8919 66.9045 9.43492L66.9814 9.53119L67.6709 8.86346L67.747 8.78992L67.678 8.70999C67.0277 7.95439 66.165 7.57223 65.1261 7.57346C64.1125 7.57257 63.2488 7.92115 62.5611 8.6107C61.8697 9.29891 61.5234 10.1691 61.5247 11.1941C61.5234 12.219 61.8697 13.0892 62.5611 13.7779C63.2488 14.467 64.1125 14.8151 65.1261 14.8142V14.7023" fill="#282739"/>
<path d="M71.2806 14.5522H70.4171V8.66094H68.5412V7.83583H73.1565V8.66094H71.2806V14.5522Z" fill="#282739"/>
<path d="M71.2805 14.5522V14.4403H70.529V8.549H68.6531V7.94777H73.0445V8.549H71.1686V14.5522H71.2805V14.4403V14.5522H71.3925V8.77288H73.2684V7.83583V7.72389H68.4292V8.66094V8.77288H70.3051V14.6642H71.2805H71.3925V14.5522H71.2805" fill="#282739"/>
<path d="M75.031 11.9251H77.2628L76.1653 8.89579H76.1281L75.031 11.9251ZM73.1268 14.5522L75.6599 7.83583H76.6345L79.1672 14.5522H78.2109L77.5632 12.7319H74.7403L74.0835 14.5522H73.1268Z" fill="#282739"/>
<path d="M75.031 11.9251V12.0371H77.4225L76.2435 8.78385H76.1281H76.0494L74.8715 12.0371H75.031V11.9251L75.1364 11.9636L76.2336 8.93385L76.1281 8.89579V9.00773H76.1653V8.89579L76.0599 8.93385L77.1032 11.8132H75.031V11.9251L75.1364 11.9636L75.031 11.9251ZM73.1268 14.5522L73.2317 14.5916L75.7372 7.94777H76.5566L79.0053 14.4403H78.2896L77.6423 12.6199H74.6616L74.0047 14.4403H73.1268V14.5522L73.2317 14.5916L73.1268 14.5522V14.6642H74.0835H74.1622L74.819 12.8438H77.4845L78.1317 14.6642H79.1672H79.3289L76.7119 7.72389H75.6599H75.5824L72.9649 14.6642H73.1268V14.5522" fill="#282739"/>
<path d="M80.1431 14.5522V7.83583H85.0024V14.5522H84.1389V8.66094H81.0058V14.5522H80.1431Z" fill="#282739"/>
<path d="M80.1431 14.5522H80.255V7.94777H84.8904V14.4403H84.2508V8.549H80.8938V14.4403H80.1431V14.5522H80.255H80.1431V14.6642H81.0058H81.1177V8.77288H84.0269V14.6642H85.0024H85.1143V7.72389H80.0311V14.6642H80.1431V14.5522" fill="#282739"/>
<path d="M86.5416 14.5522V7.83583H87.4045V10.7153H90.7627V7.83583H91.6257V14.5522H90.7627V11.522H87.4045V14.5522H86.5416Z" fill="#282739"/>
<path d="M86.5416 14.5522H86.6535V7.94777H87.2925L87.292 10.8272H90.8746V7.94777H91.5137V14.4403H90.8741L90.8746 11.4101H87.292V14.4403H86.5416V14.5522H86.6535H86.5416V14.6642H87.4044H87.5163V11.634H90.6502V14.6642H91.6257H91.7376V7.72389H90.7626H90.6502V10.6033H87.5159L87.5163 7.72389H86.5416H86.4296V14.6642H86.5416V14.5522Z" fill="#282739"/>
<path d="M94.3686 13.1219C94.8663 13.6252 95.4736 13.8766 96.1929 13.8766C96.9127 13.8766 97.5213 13.6252 98.0176 13.1219C98.5148 12.6186 98.7645 11.9753 98.7645 11.1939C98.7645 10.4126 98.5148 9.76928 98.0176 9.26599C97.5213 8.76271 96.9127 8.51129 96.1929 8.51129C95.4736 8.51129 94.8663 8.76271 94.3686 9.26599C93.8724 9.76928 93.6231 10.4126 93.6231 11.1939C93.6231 11.9753 93.8724 12.6186 94.3686 13.1219ZM98.656 13.6842C97.9958 14.3632 97.1751 14.7021 96.1929 14.7021C95.2117 14.7021 94.3906 14.3632 93.7316 13.6842C93.0713 13.0059 92.742 12.1757 92.742 11.1939C92.742 10.2122 93.0713 9.38185 93.7316 8.70371C94.3906 8.02457 95.2117 7.68528 96.1929 7.68528C97.1694 7.68528 97.9879 8.02636 98.6517 8.70808C99.3141 9.3898 99.6456 10.2184 99.6456 11.1939C99.6456 12.1757 99.3155 13.0059 98.656 13.6842Z" fill="#282739"/>
<path d="M94.3687 13.122L94.2891 13.2007C94.8047 13.7241 95.4479 13.99 96.193 13.9886C96.9385 13.99 97.5826 13.7241 98.0973 13.2007C98.6164 12.6768 98.8774 11.999 98.8765 11.1941C98.8774 10.3891 98.6164 9.7113 98.0973 9.18742C97.5826 8.66398 96.9385 8.39813 96.193 8.39947C95.4479 8.39813 94.8047 8.66398 94.2891 9.18742C93.7714 9.7113 93.5103 10.3891 93.5112 11.1941C93.5103 11.999 93.7714 12.6768 94.2891 13.2007L94.3687 13.122L94.4483 13.0433C93.9734 12.5601 93.736 11.9522 93.7351 11.1941C93.736 10.4359 93.9734 9.82805 94.4483 9.34481C94.9276 8.86167 95.4999 8.62469 96.193 8.62335C96.8865 8.62469 97.4602 8.86167 97.9381 9.34481L97.9411 9.34839L97.9381 9.34481C98.4139 9.82805 98.6513 10.4359 98.6526 11.1941C98.6513 11.9522 98.4139 12.5601 97.9381 13.0433C97.4602 13.5264 96.8865 13.7634 96.193 13.7648C95.4999 13.7634 94.9276 13.5264 94.4483 13.0433L94.3687 13.122ZM98.6561 13.6843L98.5756 13.6065C97.9342 14.2641 97.1493 14.589 96.193 14.5903C95.2371 14.589 94.4522 14.2641 93.8117 13.6065L93.8085 13.603L93.8117 13.6065C93.171 12.9466 92.8549 12.1508 92.854 11.1941C92.8549 10.2373 93.171 9.44152 93.8117 8.78163C94.4522 8.12398 95.2371 7.79869 96.193 7.79734C97.1432 7.79869 97.9264 8.12533 98.5717 8.78645C99.2145 9.44936 99.5324 10.2439 99.5337 11.1941C99.5324 12.1508 99.2154 12.9466 98.5756 13.6065L98.6561 13.6843L98.7366 13.7621C99.4152 13.0651 99.7585 12.2006 99.7576 11.1941C99.7585 10.1932 99.4139 9.33048 98.7322 8.6304C98.0501 7.92764 97.1952 7.57223 96.193 7.57346C95.186 7.57223 94.3289 7.92596 93.6511 8.62603V8.62559C92.9712 9.32298 92.6292 10.1875 92.6301 11.1941C92.6292 12.2006 92.9712 13.0651 93.6511 13.7625V13.7621C94.3289 14.4622 95.186 14.8151 96.193 14.8142C97.2004 14.8151 98.0574 14.4622 98.7366 13.7621L98.6561 13.6843" fill="#282739"/>
<path d="M103.174 14.5522V7.83583H104.036V10.7153H107.394V7.83583H108.259V14.5522H107.394V11.522H104.036V14.5522H103.174Z" fill="#282739"/>
<path d="M103.174 14.5522H103.286V7.94777H103.924V10.8272H107.506V7.94777H108.147V14.4403H107.506V11.4101H103.924V14.4403H103.174V14.5522H103.286H103.174V14.6642H104.036H104.148V11.634H107.282V14.6642H108.259H108.371V7.72389H107.394H107.282V10.6033H104.148V7.72389H103.174H103.062V14.6642H103.174V14.5522Z" fill="#282739"/>
<path d="M111.138 11.9251H113.37L112.273 8.89579H112.236L111.138 11.9251ZM109.234 14.5522L111.767 7.83583H112.742L115.275 14.5522H114.318L113.671 12.7319H110.847L110.191 14.5522H109.234Z" fill="#282739"/>
<path d="M111.138 11.9251V12.0371H113.53L112.351 8.78385H112.236H112.157L110.979 12.0371H111.138V11.9251L111.243 11.9636L112.341 8.93385L112.236 8.89579V9.00773H112.273V8.89579L112.167 8.93385L113.211 11.8132H111.138V11.9251L111.243 11.9636L111.138 11.9251ZM109.234 14.5522L109.339 14.5916L111.844 7.94777H112.665L115.113 14.4403H114.397L113.749 12.6199H110.768L110.111 14.4403H109.234V14.5522L109.339 14.5916L109.234 14.5522V14.6642H110.191H110.269L110.926 12.8438H113.591L114.238 14.6642H115.275H115.436L112.819 7.72389H111.767H111.69L109.071 14.6642H109.234V14.5522" fill="#282739"/>
<defs>
<linearGradient id="paint0_linear_4844_60" x1="24.4027" y1="9.7496" x2="5.61637" y2="28.536" gradientUnits="userSpaceOnUse">
<stop stop-color="#00A0FF"/>
<stop offset="0.00657445" stop-color="#00A1FF"/>
<stop offset="0.2601" stop-color="#00BEFF"/>
<stop offset="0.5122" stop-color="#00D2FF"/>
<stop offset="0.7604" stop-color="#00DFFF"/>
<stop offset="1" stop-color="#00E3FF"/>
</linearGradient>
<linearGradient id="paint1_linear_4844_60" x1="37.8743" y1="22.3896" x2="10.7881" y2="22.3896" gradientUnits="userSpaceOnUse">
<stop stop-color="#FFE000"/>
<stop offset="0.4087" stop-color="#FFBD00"/>
<stop offset="0.7754" stop-color="#FFA500"/>
<stop offset="1" stop-color="#FF9C00"/>
</linearGradient>
<linearGradient id="paint2_linear_4844_60" x1="27.7914" y1="24.9583" x2="2.31572" y2="50.434" gradientUnits="userSpaceOnUse">
<stop stop-color="#FF3A44"/>
<stop offset="1" stop-color="#C31162"/>
</linearGradient>
<linearGradient id="paint3_linear_4844_60" x1="8.16863" y1="0.197202" x2="19.5446" y2="11.5731" gradientUnits="userSpaceOnUse">
<stop stop-color="#32A071"/>
<stop offset="0.0685" stop-color="#2DA771"/>
<stop offset="0.4762" stop-color="#15CF74"/>
<stop offset="0.8009" stop-color="#06E775"/>
<stop offset="1" stop-color="#00F076"/>
</linearGradient>
<linearGradient id="paint4_linear_4844_60" x1="37.8744" y1="22.3898" x2="10.7881" y2="22.3898" gradientUnits="userSpaceOnUse">
<stop stop-color="#CCB300"/>
<stop offset="0.4087" stop-color="#CC9700"/>
<stop offset="0.7754" stop-color="#CC8400"/>
<stop offset="1" stop-color="#CC7D00"/>
</linearGradient>
<linearGradient id="paint5_linear_4844_60" x1="27.7913" y1="24.9583" x2="2.31563" y2="50.434" gradientUnits="userSpaceOnUse">
<stop stop-color="#CC2E36"/>
<stop offset="1" stop-color="#9C0E4E"/>
</linearGradient>
<linearGradient id="paint6_linear_4844_60" x1="24.4028" y1="9.74971" x2="5.61639" y2="28.5361" gradientUnits="userSpaceOnUse">
<stop stop-color="#008DE0"/>
<stop offset="0.00657445" stop-color="#008DE0"/>
<stop offset="0.2601" stop-color="#00A7E0"/>
<stop offset="0.5122" stop-color="#00B8E0"/>
<stop offset="0.7604" stop-color="#00C4E0"/>
<stop offset="1" stop-color="#00C7E0"/>
</linearGradient>
<linearGradient id="paint7_linear_4844_60" x1="27.7918" y1="24.9585" x2="2.31647" y2="50.435" gradientUnits="userSpaceOnUse">
<stop stop-color="#E0333C"/>
<stop offset="1" stop-color="#AB0F56"/>
</linearGradient>
<linearGradient id="paint8_linear_4844_60" x1="37.8743" y1="22.3895" x2="10.788" y2="22.3895" gradientUnits="userSpaceOnUse">
<stop stop-color="#E0C500"/>
<stop offset="0.4087" stop-color="#E0A600"/>
<stop offset="0.7754" stop-color="#E09100"/>
<stop offset="1" stop-color="#E08900"/>
</linearGradient>
<linearGradient id="paint9_linear_4844_60" x1="37.8743" y1="22.3895" x2="10.7881" y2="22.3895" gradientUnits="userSpaceOnUse">
<stop stop-color="#FFE840"/>
<stop offset="0.4087" stop-color="#FFCE40"/>
<stop offset="0.7754" stop-color="#FFBC40"/>
<stop offset="1" stop-color="#FFB540"/>
</linearGradient>
<linearGradient id="paint10_linear_4844_60" x1="24.4028" y1="9.74966" x2="5.61639" y2="28.5361" gradientUnits="userSpaceOnUse">
<stop stop-color="#40B8FF"/>
<stop offset="0.00657445" stop-color="#40B9FF"/>
<stop offset="0.2601" stop-color="#40CEFF"/>
<stop offset="0.5122" stop-color="#40DDFF"/>
<stop offset="0.7604" stop-color="#40E7FF"/>
<stop offset="1" stop-color="#40EAFF"/>
</linearGradient>
<linearGradient id="paint11_linear_4844_60" x1="8.16855" y1="0.197113" x2="19.5445" y2="11.573" gradientUnits="userSpaceOnUse">
<stop stop-color="#65B895"/>
<stop offset="0.0685" stop-color="#62BD95"/>
<stop offset="0.4762" stop-color="#50DB97"/>
<stop offset="0.8009" stop-color="#44ED98"/>
<stop offset="1" stop-color="#40F498"/>
</linearGradient>
</defs>
</svg>
