<svg width="35" height="24" viewBox="0 0 35 24" fill="none" xmlns="http://www.w3.org/2000/svg">
<rect x="0.243409" y="0.243409" width="33.5905" height="22.8805" rx="2.6775" fill="white" stroke="#EAEBED" stroke-width="0.486818"/>
<path fill-rule="evenodd" clip-rule="evenodd" d="M16.0943 15.3426V12.4013H17.6124C18.2345 12.4013 18.7595 12.1929 19.1875 11.7818L19.2903 11.6775C20.0721 10.8264 20.0208 9.50051 19.1875 8.71308C18.7709 8.2962 18.2002 8.07039 17.6124 8.08197H15.1755V15.3426H16.0943ZM16.0944 11.5096V8.97361H17.6356C17.9666 8.97361 18.2806 9.10099 18.5146 9.33259C19.0112 9.81895 19.0226 10.6295 18.5431 11.1333C18.3091 11.3822 17.9781 11.5212 17.6356 11.5096H16.0944ZM23.5763 10.7627C23.1825 10.398 22.646 10.2127 21.9669 10.2127C21.0937 10.2127 20.4374 10.5369 20.0037 11.1796L20.8141 11.6949C21.1108 11.2549 21.516 11.0349 22.0297 11.0349C22.355 11.0349 22.6689 11.1565 22.9143 11.3765C23.154 11.5849 23.2909 11.886 23.2909 12.2044V12.4187C22.9371 12.2218 22.4919 12.1176 21.9441 12.1176C21.3049 12.1176 20.7912 12.2681 20.4089 12.575C20.0265 12.8819 19.8325 13.2872 19.8325 13.8025C19.821 14.2715 20.0208 14.7173 20.3746 15.0184C20.7342 15.3426 21.1907 15.5047 21.7272 15.5047C22.3607 15.5047 22.8629 15.221 23.2453 14.6536H23.2852V15.3426H24.1641V12.2797C24.1641 11.637 23.9701 11.1275 23.5763 10.7627ZM21.0825 14.4278C20.8941 14.2888 20.7799 14.063 20.7799 13.8198C20.7799 13.5477 20.9055 13.3219 21.151 13.1424C21.4021 12.9629 21.716 12.8703 22.0871 12.8703C22.6008 12.8645 23.0003 12.9803 23.2857 13.2119C23.2857 13.6056 23.1316 13.9472 22.8291 14.2367C22.5551 14.5146 22.1841 14.671 21.796 14.671C21.5391 14.6768 21.2879 14.5899 21.0825 14.4278ZM26.1387 17.5254L29.2091 10.3748H28.2104L26.7893 13.9414H26.7722L25.3169 10.3748H24.3182L26.3328 15.0242L25.1914 17.5254H26.1387Z" fill="#282739"/>
<path d="M12.9222 11.7644C12.9222 11.4807 12.8994 11.197 12.8537 10.9191H8.97867V12.5229H11.1987C11.1074 13.0382 10.8106 13.5014 10.3769 13.7909V14.8331H11.7009C12.4771 14.1093 12.9222 13.0382 12.9222 11.7644Z" fill="#4285F4"/>
<path d="M8.97882 15.8405C10.086 15.8405 11.0219 15.4699 11.7011 14.833L10.377 13.7908C10.0061 14.0456 9.5324 14.1903 8.97882 14.1903C7.9059 14.1903 6.99848 13.455 6.67318 12.4707H5.3092V13.5476C6.00546 14.9546 7.42651 15.8405 8.97882 15.8405Z" fill="#34A853"/>
<path d="M6.67333 12.4707C6.50209 11.9554 6.50209 11.3938 6.67333 10.8727V9.80151H5.30913C4.72122 10.9769 4.72122 12.3665 5.30913 13.5418L6.67333 12.4707Z" fill="#FBBC04"/>
<path d="M8.97882 9.15308C9.56665 9.1415 10.1316 9.36731 10.554 9.7784L11.7296 8.58566C10.982 7.87929 10.0004 7.49136 8.97882 7.50294C7.42651 7.50294 6.00546 8.39459 5.3092 9.80156L6.67318 10.8785C6.99848 9.88841 7.9059 9.15308 8.97882 9.15308Z" fill="#EA4335"/>
</svg>
