<svg width="35" height="24" viewBox="0 0 35 24" fill="none" xmlns="http://www.w3.org/2000/svg">
<rect x="0.243409" y="0.243409" width="33.5905" height="22.8805" rx="2.6775" fill="white" stroke="#EAEBED" stroke-width="0.486818"/>
<path fill-rule="evenodd" clip-rule="evenodd" d="M17.2308 16.9227C16.0707 17.9239 14.5658 18.5283 12.9213 18.5283C9.25198 18.5283 6.27742 15.5192 6.27742 11.8073C6.27742 8.0954 9.25198 5.0863 12.9213 5.0863C14.5658 5.0863 16.0707 5.69069 17.2308 6.69186C18.391 5.69069 19.8959 5.0863 21.5404 5.0863C25.2097 5.0863 28.1842 8.0954 28.1842 11.8073C28.1842 15.5192 25.2097 18.5283 21.5404 18.5283C19.8959 18.5283 18.391 17.9239 17.2308 16.9227Z" fill="#ED0006"/>
<path fill-rule="evenodd" clip-rule="evenodd" d="M17.2308 16.9227C18.6593 15.69 19.5652 13.8557 19.5652 11.8073C19.5652 9.75895 18.6593 7.92461 17.2308 6.69186C18.391 5.69069 19.8959 5.0863 21.5404 5.0863C25.2097 5.0863 28.1842 8.0954 28.1842 11.8073C28.1842 15.5192 25.2097 18.5283 21.5404 18.5283C19.8959 18.5283 18.391 17.9239 17.2308 16.9227Z" fill="#F9A000"/>
<path fill-rule="evenodd" clip-rule="evenodd" d="M17.2309 6.69189C18.6594 7.92465 19.5652 9.75897 19.5652 11.8073C19.5652 13.8557 18.6594 15.69 17.2309 16.9227C15.8023 15.69 14.8965 13.8557 14.8965 11.8073C14.8965 9.75897 15.8023 7.92465 17.2309 6.69189Z" fill="#FF5E00"/>
</svg>
