<svg width="16" height="16" viewBox="0 0 16 16" fill="none" xmlns="http://www.w3.org/2000/svg">
<path fill-rule="evenodd" clip-rule="evenodd" d="M0 6.88102C0 10.6509 3.0745 13.7254 6.88102 13.7254C7.34823 13.7254 7.81544 13.6845 8.35227 13.6375C8.95093 13.5851 9.63617 13.5251 10.5045 13.5058C11.8222 13.5058 13.2496 13.9817 14.8235 15.3725C14.9699 15.5189 15.1895 15.3359 15.0431 15.1529C13.4692 13.213 12.0418 12.847 10.6143 12.5176C8.85748 12.115 7.94246 11.1634 7.32024 10.0653C7.21043 9.84572 7.13723 9.88232 7.13723 10.1751C7.10063 10.6143 7.13723 11.017 7.21043 11.4196H6.99082C4.50195 11.4196 2.45228 9.3699 2.45228 6.88102C2.45228 4.39214 4.50195 2.34248 6.99082 2.34248C9.4797 2.34248 11.5294 4.39214 11.5294 6.88102C11.5294 7.02743 11.5294 7.21043 11.4928 7.39344C11.1268 7.32024 10.5045 7.32024 10.0287 7.35684C9.84572 7.35684 9.84572 7.43004 9.99212 7.46664C11.4562 7.75945 12.481 8.67448 12.7372 10.3581C12.7372 10.4313 12.7738 10.4313 12.8104 10.3947C13.396 9.3699 13.762 8.16206 13.762 6.88102C13.762 3.0745 10.6875 0 6.88102 0C3.0745 0 0 3.1111 0 6.88102ZM11.8587 9.69932C12.1149 9.80912 12.2247 10.1751 12.2247 10.3581C12.2613 10.6509 12.1881 10.7974 12.0783 10.7974C11.9685 10.7974 11.8221 10.6876 11.6757 10.4313C11.5293 10.1751 11.4561 9.91893 11.5293 9.77252C11.6391 9.69932 11.7489 9.66272 11.8587 9.69932ZM10.3581 10.834C10.5045 10.834 10.6875 10.9072 10.8705 11.0536C11.1633 11.3098 11.2731 11.6026 11.1267 11.8222C11.0535 11.932 10.8705 12.0052 10.7241 12.0052C10.5411 12.0052 10.3581 11.932 10.2483 11.8222C9.95548 11.566 9.88228 11.2 10.0653 10.9804C10.1019 10.9072 10.2117 10.834 10.3581 10.834Z" fill="#F28A1A"/>
</svg>
