<svg xmlns="http://www.w3.org/2000/svg" style="display:none">

  <!-- Viber -->
  <symbol id="icon-viber" viewBox="0 0 12 12" fill="none" xmlns="http://www.w3.org/2000/svg">
<g clip-path="url(#clip0_1_15970)">
<path d="M6.40796 6.77975C6.27072 6.91708 6.04815 6.91708 5.91082 6.77975L4.31323 5.18216C4.24731 5.11624 4.21023 5.02679 4.21023 4.93359C4.21023 4.8403 4.24731 4.75095 4.31323 4.68494L4.59723 4.40103L3.76309 3.56689L3.07974 4.25024C2.84976 4.48022 2.84985 4.8544 3.07974 5.08438L6.0086 8.01343C6.11929 8.12411 6.26742 8.185 6.42572 8.185C6.58401 8.185 6.73214 8.12402 6.84283 8.01334L7.52618 7.33008L6.69204 6.49585L6.40796 6.77975Z" fill="currentColor"/>
<path d="M11.4957 4.23541C11.4957 3.10831 11.0541 2.04593 10.2519 1.24384C9.4498 0.441742 8.38742 0 7.26041 0H4.75085C4.75085 0 4.75085 0 4.75076 0C3.62384 0 2.56146 0.441742 1.75946 1.24374C0.957367 2.04584 0.515625 3.10831 0.515625 4.23532V6.20792C0.515625 7.08069 0.78186 7.92032 1.28558 8.63599C1.72998 9.26733 2.32764 9.76044 3.02444 10.0732V11.2062C3.02444 11.7921 3.35248 11.9999 3.63336 12C3.83405 12 4.03482 11.9009 4.23019 11.7057L5.49243 10.4432H7.2605C8.38751 10.4432 9.44989 10.0015 10.252 9.1994C11.0541 8.39731 11.4958 7.33493 11.4958 6.20792L11.4957 4.23541ZM8.27197 7.57864L7.33997 8.51056C7.09644 8.75409 6.77179 8.88803 6.42572 8.88803C6.07965 8.88803 5.755 8.754 5.51147 8.51056L2.58252 5.58151C2.07852 5.07733 2.07852 4.25711 2.58252 3.75302L3.51453 2.82111C3.58044 2.7551 3.6698 2.71811 3.76309 2.71811C3.85629 2.71811 3.94574 2.7551 4.01166 2.82111L5.34302 4.15247C5.40894 4.21838 5.44592 4.30783 5.44592 4.40103C5.44592 4.49423 5.40894 4.58368 5.34293 4.6496L5.05902 4.9335L6.15948 6.03397L6.44348 5.74997C6.58081 5.61273 6.80338 5.61273 6.94061 5.75006L8.27197 7.08142C8.33798 7.14734 8.37497 7.23679 8.37497 7.32999C8.37497 7.42328 8.33798 7.51273 8.27197 7.57864ZM5.73944 3.41299C5.73944 3.2189 5.89682 3.06143 6.091 3.06143C7.30911 3.06143 8.30017 4.0524 8.30017 5.27042C8.30017 5.4646 8.14279 5.62198 7.94861 5.62198C7.75452 5.62198 7.59705 5.4646 7.59705 5.27042C7.59705 4.44012 6.92148 3.76456 6.091 3.76456C5.89682 3.76456 5.73944 3.60718 5.73944 3.41299ZM9.45474 5.62216C9.26056 5.62216 9.10318 5.46469 9.10318 5.2706C9.10327 4.46594 8.78989 3.70953 8.22098 3.14053C7.65198 2.57162 6.89557 2.25824 6.09091 2.25824C5.89682 2.25824 5.73935 2.10086 5.73935 1.90668C5.73935 1.71259 5.89682 1.55511 6.09091 1.55511C7.08334 1.55511 8.01636 1.94165 8.71811 2.6434C9.41995 3.34515 9.8064 4.27817 9.8063 5.2706C9.8063 5.46469 9.64893 5.62216 9.45474 5.62216Z" fill="currentColor"/>
</g>
<defs>
<clipPath id="clip0_1_15970">
<rect width="12" height="12" fill="white"/>
</clipPath>
</defs>
</symbol>


  <!-- WhatsApp -->
  <symbol id="icon-whatsapp" viewBox="0 0 12 12" fill="none" xmlns="http://www.w3.org/2000/svg">
<g clip-path="url(#clip0_1_15973)">
<path d="M5.99685 0.00378706C2.68509 0.00448977 0.0009558 2.68978 0.00165851 6.00153C0.00189275 7.14828 0.330971 8.2709 0.949824 9.23633L0.0168839 11.6569C-0.0327977 11.7856 0.0312894 11.9303 0.160026 11.98C0.188813 11.9911 0.219381 11.9968 0.25023 11.9967C0.278854 11.9969 0.307267 11.992 0.334181 11.9822L2.83271 11.0902C5.64383 12.841 9.342 11.9815 11.0928 9.17033C12.8436 6.35918 11.984 2.66104 9.17286 0.910259C8.21994 0.31675 7.11952 0.00268615 5.99685 0.00378706Z" fill="currentColor"/>
<path d="M8.85557 7.02445C8.85557 7.02445 8.24344 6.72462 7.86016 6.52475C7.42642 6.30138 6.91672 6.71963 6.67686 6.9575C6.30356 6.8141 5.96261 6.59767 5.67396 6.32087C5.39711 6.03227 5.18068 5.69131 5.03732 5.31796C5.27519 5.07761 5.69244 4.56841 5.47008 4.13467C5.27269 3.7509 4.97038 3.13877 4.97038 3.13877C4.92796 3.05458 4.84178 3.00144 4.7475 3.00134H4.24781C3.52008 3.12703 2.99097 3.762 2.99855 4.50046C2.99855 5.28498 3.93749 6.79211 4.57063 7.42572C5.20377 8.05933 6.71087 8.99779 7.49589 8.99779C8.23435 9.00538 8.86932 8.47624 8.99501 7.74854V7.24884C8.99508 7.15356 8.94102 7.06654 8.85557 7.02445Z" fill="#F7F7F7"/>
</g>
<defs>
<clipPath id="clip0_1_15973">
<rect width="12" height="12" fill="white"/>
</clipPath>
</defs>
</symbol>


  <!-- Telegram -->
  <symbol id="icon-telegram" viewBox="0 0 12 12" fill="none" xmlns="http://www.w3.org/2000/svg">
<g clip-path="url(#clip0_1_15976)">
<path d="M4.70847 7.59058L4.50997 10.3826C4.79397 10.3826 4.91697 10.2606 5.06447 10.1141L6.39597 8.84158L9.15497 10.8621C9.66097 11.1441 10.0175 10.9956 10.154 10.3966L11.965 1.91058L11.9655 1.91008C12.126 1.16208 11.695 0.869581 11.202 1.05308L0.556967 5.12858C-0.169533 5.41058 -0.158533 5.81558 0.433467 5.99908L3.15497 6.84558L9.47647 2.89008C9.77397 2.69308 10.0445 2.80208 9.82197 2.99908L4.70847 7.59058Z" fill="currentColor"/>
</g>
<defs>
<clipPath id="clip0_1_15976">
<rect width="12" height="12" fill="white"/>
</clipPath>
</defs>
</symbol>


  <!-- Search -->
  <symbol id="icon-search" viewBox="0 0 16 16" fill="none" xmlns="http://www.w3.org/2000/svg">
<path d="M15.9519 14.8499L10.758 9.65596C11.564 8.61396 11.9999 7.33997 11.9999 5.99997C11.9999 4.39598 11.374 2.89199 10.242 1.75799C9.10996 0.623997 7.60197 0 5.99997 0C4.39798 0 2.88999 0.625997 1.75799 1.75799C0.623997 2.88999 0 4.39598 0 5.99997C0 7.60197 0.625997 9.10996 1.75799 10.242C2.88999 11.376 4.39598 11.9999 5.99997 11.9999C7.33997 11.9999 8.61196 11.564 9.65396 10.76L14.8479 15.9519C14.8632 15.9672 14.8812 15.9793 14.9012 15.9875C14.9211 15.9958 14.9424 16 14.9639 16C14.9855 16 15.0068 15.9958 15.0267 15.9875C15.0466 15.9793 15.0647 15.9672 15.0799 15.9519L15.9519 15.0819C15.9672 15.0667 15.9793 15.0486 15.9875 15.0287C15.9958 15.0088 16 14.9875 16 14.9659C16 14.9444 15.9958 14.9231 15.9875 14.9032C15.9793 14.8833 15.9672 14.8652 15.9519 14.8499ZM9.16796 9.16796C8.31996 10.014 7.19597 10.48 5.99997 10.48C4.80398 10.48 3.67998 10.014 2.83199 9.16796C1.98599 8.31996 1.51999 7.19597 1.51999 5.99997C1.51999 4.80398 1.98599 3.67798 2.83199 2.83199C3.67998 1.98599 4.80398 1.51999 5.99997 1.51999C7.19597 1.51999 8.32196 1.98399 9.16796 2.83199C10.014 3.67998 10.48 4.80398 10.48 5.99997C10.48 7.19597 10.014 8.32196 9.16796 9.16796Z" fill="white"/>
</symbol>

  

  <!-- Burger / Catalog -->
  <symbol id="icon-burger" viewBox="0 0 18 12">
    <rect x="0" y="0" width="18" height="2" rx="1" fill="currentColor"/>
    <rect x="0" y="5" width="18" height="2" rx="1" fill="currentColor"/>
    <rect x="0" y="10" width="18" height="2" rx="1" fill="currentColor"/>
  </symbol>

<!-- HERO BANNER -->
  <symbol id="hero-banner" viewBox="0 0 1380 445" fill="none">
<rect width="1380" height="445" rx="10" fill="url(#paint0_linear_1_14904)"/>
<defs>
<linearGradient id="paint0_linear_1_14904" x1="312" y1="445" x2="787.5" y2="-4.6049e-06" gradientUnits="userSpaceOnUse">
<stop stop-color="#6F73EE"/>
<stop offset="1" stop-color="#6F73EE" stop-opacity="0"/>
</linearGradient>
</defs>
</symbol>

<symbol id="scooter" width="16" height="16" viewBox="0 0 16 16" fill="none" xmlns="http://www.w3.org/2000/svg">
<g clip-path="url(#clip0_1_14920)">
<path d="M12.9407 10.8467L10.3157 1.86234L12.0813 1.67171C12.4469 1.63109 12.7125 1.30296 12.6719 0.937337C12.6313 0.571712 12.3063 0.302962 11.9375 0.346712L6.84067 0.896712C6.47505 0.937337 6.20942 1.26546 6.25005 1.63109C6.28755 1.97171 6.57505 2.22484 6.91255 2.22484C6.93755 2.22484 6.95942 2.22484 6.98442 2.22171L8.97192 2.00921L11.6469 11.1842C11.1188 11.4936 10.7219 11.9936 10.5469 12.5873H5.45317C5.15942 11.5842 4.22505 10.8467 3.11255 10.8467C1.76567 10.8467 0.675049 11.9248 0.675049 13.253C0.675049 14.5811 1.76567 15.6592 3.11255 15.6592C4.22505 15.6592 5.15942 14.9248 5.45317 13.9186H10.5438C10.8375 14.9217 11.7719 15.6592 12.8844 15.6592C14.2313 15.6592 15.3219 14.5811 15.3219 13.253C15.3219 11.9405 14.2625 10.8748 12.9407 10.8467Z" fill="white"/>
</g>
<defs>
<clipPath id="clip0_1_14920">
<rect width="16" height="16" fill="white"/>
</clipPath>
</defs>
</symbol>


<symbol id="energy" width="16" height="16" viewBox="0 0 16 16" fill="none" xmlns="http://www.w3.org/2000/svg">
<path d="M12.1998 0H6.19959L3.80035 8.63849H6.20448L4.16032 16H4.88044L11.8393 7.36114H8.31397L12.1998 0Z" fill="white"/>
</symbol>

<symbol id="pin" width="15" height="15" viewBox="0 0 15 15" fill="none" xmlns="http://www.w3.org/2000/svg">
<path d="M11.9468 1.84193C10.7591 0.654143 9.1798 0 7.50008 0C5.82034 0 4.24111 0.654114 3.05327 1.84193C1.86551 3.02969 1.21136 4.60886 1.21136 6.2886C1.21136 7.96834 1.86551 9.54757 3.05327 10.7354L7.18936 14.8713C7.27517 14.9571 7.38764 15 7.50008 15C7.61255 15 7.72502 14.9571 7.8108 14.8713L11.9467 10.7354C13.1345 9.5476 13.7887 7.96837 13.7887 6.28863C13.7887 4.60883 13.1346 3.02966 11.9468 1.84193ZM9.47505 8.26351C8.94753 8.79103 8.24616 9.08157 7.50011 9.08157C6.75406 9.08157 6.05269 8.79106 5.5252 8.26354C4.99765 7.73602 4.70714 7.03465 4.70714 6.2886C4.70714 5.54258 4.99765 4.84121 5.5252 4.31366C6.05269 3.78614 6.75406 3.49563 7.50011 3.49563C8.24616 3.49563 8.94753 3.78614 9.47505 4.31366C10.0026 4.84115 10.2931 5.54252 10.2931 6.28857C10.2931 7.03462 10.0025 7.73602 9.47505 8.26351Z" fill="white"/>
</symbol>

<!-- TEST DRIVE -->
<symbol id="check_circle" width="22" height="22" viewBox="0 0 22 22" fill="none" xmlns="http://www.w3.org/2000/svg">
<path d="M15.0168 7.58398H14.0092C13.79 7.58398 13.5816 7.68926 13.4527 7.86973L10.0754 12.5533L8.54566 10.4307C8.41676 10.2523 8.21051 10.1449 7.98922 10.1449H6.9816C6.84195 10.1449 6.76031 10.3039 6.84195 10.4178L9.51891 14.1303C9.58215 14.2185 9.66552 14.2905 9.7621 14.3401C9.85868 14.3897 9.9657 14.4156 10.0743 14.4156C10.1829 14.4156 10.2899 14.3897 10.3865 14.3401C10.483 14.2905 10.5664 14.2185 10.6297 14.1303L15.1543 7.85684C15.2381 7.74297 15.1564 7.58398 15.0168 7.58398V7.58398Z" fill="#6F73EE"/>
<path d="M11 1.375C5.68477 1.375 1.375 5.68477 1.375 11C1.375 16.3152 5.68477 20.625 11 20.625C16.3152 20.625 20.625 16.3152 20.625 11C20.625 5.68477 16.3152 1.375 11 1.375ZM11 18.9922C6.58711 18.9922 3.00781 15.4129 3.00781 11C3.00781 6.58711 6.58711 3.00781 11 3.00781C15.4129 3.00781 18.9922 6.58711 18.9922 11C18.9922 15.4129 15.4129 18.9922 11 18.9922Z" fill="#6F73EE"/>
</symbol>

</svg>
