<svg xmlns="http://www.w3.org/2000/svg" style="display:none">

  <!-- Viber -->
  <symbol id="icon-viber" viewBox="0 0 12 12" fill="none" xmlns="http://www.w3.org/2000/svg">
<g clip-path="url(#clip0_1_15970)">
<path d="M6.40796 6.77975C6.27072 6.91708 6.04815 6.91708 5.91082 6.77975L4.31323 5.18216C4.24731 5.11624 4.21023 5.02679 4.21023 4.93359C4.21023 4.8403 4.24731 4.75095 4.31323 4.68494L4.59723 4.40103L3.76309 3.56689L3.07974 4.25024C2.84976 4.48022 2.84985 4.8544 3.07974 5.08438L6.0086 8.01343C6.11929 8.12411 6.26742 8.185 6.42572 8.185C6.58401 8.185 6.73214 8.12402 6.84283 8.01334L7.52618 7.33008L6.69204 6.49585L6.40796 6.77975Z" fill="currentColor"/>
<path d="M11.4957 4.23541C11.4957 3.10831 11.0541 2.04593 10.2519 1.24384C9.4498 0.441742 8.38742 0 7.26041 0H4.75085C4.75085 0 4.75085 0 4.75076 0C3.62384 0 2.56146 0.441742 1.75946 1.24374C0.957367 2.04584 0.515625 3.10831 0.515625 4.23532V6.20792C0.515625 7.08069 0.78186 7.92032 1.28558 8.63599C1.72998 9.26733 2.32764 9.76044 3.02444 10.0732V11.2062C3.02444 11.7921 3.35248 11.9999 3.63336 12C3.83405 12 4.03482 11.9009 4.23019 11.7057L5.49243 10.4432H7.2605C8.38751 10.4432 9.44989 10.0015 10.252 9.1994C11.0541 8.39731 11.4958 7.33493 11.4958 6.20792L11.4957 4.23541ZM8.27197 7.57864L7.33997 8.51056C7.09644 8.75409 6.77179 8.88803 6.42572 8.88803C6.07965 8.88803 5.755 8.754 5.51147 8.51056L2.58252 5.58151C2.07852 5.07733 2.07852 4.25711 2.58252 3.75302L3.51453 2.82111C3.58044 2.7551 3.6698 2.71811 3.76309 2.71811C3.85629 2.71811 3.94574 2.7551 4.01166 2.82111L5.34302 4.15247C5.40894 4.21838 5.44592 4.30783 5.44592 4.40103C5.44592 4.49423 5.40894 4.58368 5.34293 4.6496L5.05902 4.9335L6.15948 6.03397L6.44348 5.74997C6.58081 5.61273 6.80338 5.61273 6.94061 5.75006L8.27197 7.08142C8.33798 7.14734 8.37497 7.23679 8.37497 7.32999C8.37497 7.42328 8.33798 7.51273 8.27197 7.57864ZM5.73944 3.41299C5.73944 3.2189 5.89682 3.06143 6.091 3.06143C7.30911 3.06143 8.30017 4.0524 8.30017 5.27042C8.30017 5.4646 8.14279 5.62198 7.94861 5.62198C7.75452 5.62198 7.59705 5.4646 7.59705 5.27042C7.59705 4.44012 6.92148 3.76456 6.091 3.76456C5.89682 3.76456 5.73944 3.60718 5.73944 3.41299ZM9.45474 5.62216C9.26056 5.62216 9.10318 5.46469 9.10318 5.2706C9.10327 4.46594 8.78989 3.70953 8.22098 3.14053C7.65198 2.57162 6.89557 2.25824 6.09091 2.25824C5.89682 2.25824 5.73935 2.10086 5.73935 1.90668C5.73935 1.71259 5.89682 1.55511 6.09091 1.55511C7.08334 1.55511 8.01636 1.94165 8.71811 2.6434C9.41995 3.34515 9.8064 4.27817 9.8063 5.2706C9.8063 5.46469 9.64893 5.62216 9.45474 5.62216Z" fill="currentColor"/>
</g>
<defs>
<clipPath id="clip0_1_15970">
<rect width="12" height="12" fill="white"/>
</clipPath>
</defs>
</symbol>


  <!-- WhatsApp -->
  <symbol id="icon-whatsapp" viewBox="0 0 12 12" fill="none" xmlns="http://www.w3.org/2000/svg">
<g clip-path="url(#clip0_1_15973)">
<path d="M5.99685 0.00378706C2.68509 0.00448977 0.0009558 2.68978 0.00165851 6.00153C0.00189275 7.14828 0.330971 8.2709 0.949824 9.23633L0.0168839 11.6569C-0.0327977 11.7856 0.0312894 11.9303 0.160026 11.98C0.188813 11.9911 0.219381 11.9968 0.25023 11.9967C0.278854 11.9969 0.307267 11.992 0.334181 11.9822L2.83271 11.0902C5.64383 12.841 9.342 11.9815 11.0928 9.17033C12.8436 6.35918 11.984 2.66104 9.17286 0.910259C8.21994 0.31675 7.11952 0.00268615 5.99685 0.00378706Z" fill="currentColor"/>
<path d="M8.85557 7.02445C8.85557 7.02445 8.24344 6.72462 7.86016 6.52475C7.42642 6.30138 6.91672 6.71963 6.67686 6.9575C6.30356 6.8141 5.96261 6.59767 5.67396 6.32087C5.39711 6.03227 5.18068 5.69131 5.03732 5.31796C5.27519 5.07761 5.69244 4.56841 5.47008 4.13467C5.27269 3.7509 4.97038 3.13877 4.97038 3.13877C4.92796 3.05458 4.84178 3.00144 4.7475 3.00134H4.24781C3.52008 3.12703 2.99097 3.762 2.99855 4.50046C2.99855 5.28498 3.93749 6.79211 4.57063 7.42572C5.20377 8.05933 6.71087 8.99779 7.49589 8.99779C8.23435 9.00538 8.86932 8.47624 8.99501 7.74854V7.24884C8.99508 7.15356 8.94102 7.06654 8.85557 7.02445Z" fill="#F7F7F7"/>
</g>
<defs>
<clipPath id="clip0_1_15973">
<rect width="12" height="12" fill="white"/>
</clipPath>
</defs>
</symbol>


  <!-- Telegram -->
  <symbol id="icon-telegram" viewBox="0 0 12 12" fill="none" xmlns="http://www.w3.org/2000/svg">
<g clip-path="url(#clip0_1_15976)">
<path d="M4.70847 7.59058L4.50997 10.3826C4.79397 10.3826 4.91697 10.2606 5.06447 10.1141L6.39597 8.84158L9.15497 10.8621C9.66097 11.1441 10.0175 10.9956 10.154 10.3966L11.965 1.91058L11.9655 1.91008C12.126 1.16208 11.695 0.869581 11.202 1.05308L0.556967 5.12858C-0.169533 5.41058 -0.158533 5.81558 0.433467 5.99908L3.15497 6.84558L9.47647 2.89008C9.77397 2.69308 10.0445 2.80208 9.82197 2.99908L4.70847 7.59058Z" fill="currentColor"/>
</g>
<defs>
<clipPath id="clip0_1_15976">
<rect width="12" height="12" fill="white"/>
</clipPath>
</defs>
</symbol>


  <!-- Search -->
  <symbol id="icon-search" viewBox="0 0 16 16" fill="none" xmlns="http://www.w3.org/2000/svg">
<path d="M15.9519 14.8499L10.758 9.65596C11.564 8.61396 11.9999 7.33997 11.9999 5.99997C11.9999 4.39598 11.374 2.89199 10.242 1.75799C9.10996 0.623997 7.60197 0 5.99997 0C4.39798 0 2.88999 0.625997 1.75799 1.75799C0.623997 2.88999 0 4.39598 0 5.99997C0 7.60197 0.625997 9.10996 1.75799 10.242C2.88999 11.376 4.39598 11.9999 5.99997 11.9999C7.33997 11.9999 8.61196 11.564 9.65396 10.76L14.8479 15.9519C14.8632 15.9672 14.8812 15.9793 14.9012 15.9875C14.9211 15.9958 14.9424 16 14.9639 16C14.9855 16 15.0068 15.9958 15.0267 15.9875C15.0466 15.9793 15.0647 15.9672 15.0799 15.9519L15.9519 15.0819C15.9672 15.0667 15.9793 15.0486 15.9875 15.0287C15.9958 15.0088 16 14.9875 16 14.9659C16 14.9444 15.9958 14.9231 15.9875 14.9032C15.9793 14.8833 15.9672 14.8652 15.9519 14.8499ZM9.16796 9.16796C8.31996 10.014 7.19597 10.48 5.99997 10.48C4.80398 10.48 3.67998 10.014 2.83199 9.16796C1.98599 8.31996 1.51999 7.19597 1.51999 5.99997C1.51999 4.80398 1.98599 3.67798 2.83199 2.83199C3.67998 1.98599 4.80398 1.51999 5.99997 1.51999C7.19597 1.51999 8.32196 1.98399 9.16796 2.83199C10.014 3.67998 10.48 4.80398 10.48 5.99997C10.48 7.19597 10.014 8.32196 9.16796 9.16796Z" fill="white"/>
</symbol>


  <!-- Compare -->
 <symbol id="icon-compare" width="20" height="20" viewBox="0 0 20 20" fill="none" xmlns="http://www.w3.org/2000/svg">

<path d="M19.4141 11.2639H18.7766L16.7349 6.32553C17.0208 6.28663 17.2413 6.04217 17.2413 5.74561C17.2413 5.42202 16.979 5.15967 16.6554 5.15967H11.6177C11.3769 4.49088 10.7363 4.01135 9.98559 4.01135C9.23488 4.01135 8.59422 4.49092 8.3534 5.15967H3.34465C3.02105 5.15967 2.75871 5.42202 2.75871 5.74561C2.75871 6.04217 2.97926 6.28663 3.26512 6.32553L1.22344 11.2639H0.585938C0.262344 11.2639 0 11.5263 0 11.8499C0 14.132 1.85668 15.9887 4.13883 15.9887C6.42098 15.9887 8.27766 14.132 8.27766 11.8499C8.27766 11.5263 8.01531 11.2639 7.69172 11.2639H7.05418L5.01504 6.33155H8.3534C8.59422 7.00034 9.23484 7.47987 9.98559 7.47987C10.7363 7.47987 11.3769 7.00034 11.6177 6.33155H14.985L12.9459 11.2639H12.3083C11.9847 11.2639 11.7224 11.5263 11.7224 11.8499C11.7224 14.132 13.5791 15.9887 15.8612 15.9887C18.1434 15.9887 20 14.132 20 11.8499C20 11.5263 19.7377 11.2639 19.4141 11.2639ZM4.13883 14.8168C2.70332 14.8168 1.5027 13.7922 1.22996 12.4358H7.0477C6.77496 13.7922 5.57434 14.8168 4.13883 14.8168ZM5.78613 11.2639H2.49152L4.13883 7.2794L5.78613 11.2639ZM9.98555 6.30799C9.67543 6.30799 9.42316 6.05573 9.42316 5.74561C9.42316 5.43549 9.67543 5.18323 9.98555 5.18323C10.2956 5.18323 10.5479 5.43549 10.5479 5.74561C10.5479 6.05573 10.2957 6.30799 9.98555 6.30799ZM15.8612 7.2794L17.5085 11.2639H14.2139L15.8612 7.2794ZM15.8612 14.8168C14.4257 14.8168 13.225 13.7922 12.9523 12.4358H18.77C18.4973 13.7922 17.2966 14.8168 15.8612 14.8168Z"/>
<path d="M19.4141 11.2639H18.7766L16.7349 6.32553C17.0208 6.28663 17.2413 6.04217 17.2413 5.74561C17.2413 5.42202 16.979 5.15967 16.6554 5.15967H11.6177C11.3769 4.49088 10.7363 4.01135 9.98559 4.01135C9.23488 4.01135 8.59422 4.49092 8.3534 5.15967H3.34465C3.02105 5.15967 2.75871 5.42202 2.75871 5.74561C2.75871 6.04217 2.97926 6.28663 3.26512 6.32553L1.22344 11.2639H0.585938C0.262344 11.2639 0 11.5263 0 11.8499C0 14.132 1.85668 15.9887 4.13883 15.9887C6.42098 15.9887 8.27766 14.132 8.27766 11.8499C8.27766 11.5263 8.01531 11.2639 7.69172 11.2639H7.05418L5.01504 6.33155H8.3534C8.59422 7.00034 9.23484 7.47987 9.98559 7.47987C10.7363 7.47987 11.3769 7.00034 11.6177 6.33155H14.985L12.9459 11.2639H12.3083C11.9847 11.2639 11.7224 11.5263 11.7224 11.8499C11.7224 14.132 13.5791 15.9887 15.8612 15.9887C18.1434 15.9887 20 14.132 20 11.8499C20 11.5263 19.7377 11.2639 19.4141 11.2639ZM4.13883 14.8168C2.70332 14.8168 1.5027 13.7922 1.22996 12.4358H7.0477C6.77496 13.7922 5.57434 14.8168 4.13883 14.8168ZM5.78613 11.2639H2.49152L4.13883 7.2794L5.78613 11.2639ZM9.98555 6.30799C9.67543 6.30799 9.42316 6.05573 9.42316 5.74561C9.42316 5.43549 9.67543 5.18323 9.98555 5.18323C10.2956 5.18323 10.5479 5.43549 10.5479 5.74561C10.5479 6.05573 10.2957 6.30799 9.98555 6.30799ZM15.8612 7.2794L17.5085 11.2639H14.2139L15.8612 7.2794ZM15.8612 14.8168C14.4257 14.8168 13.225 13.7922 12.9523 12.4358H18.77C18.4973 13.7922 17.2966 14.8168 15.8612 14.8168Z" fill="#282739"/>
<path d="M18.7766 11.2639L15.08 12.7922L16.1019 15.2639H18.7766V11.2639ZM16.7349 6.32553L16.1956 2.36206L11.0571 3.06133L13.0384 7.85377L16.7349 6.32553ZM11.6177 5.15967L7.85429 6.51483L8.80665 9.15967H11.6177V5.15967ZM8.3534 5.15967V9.15967H11.1644L12.1168 6.5149L8.3534 5.15967ZM3.26512 6.32553L6.96166 7.85379L8.94296 3.06142L3.80455 2.36207L3.26512 6.32553ZM1.22344 11.2639V15.2639H3.89809L4.91998 12.7922L1.22344 11.2639ZM7.05418 11.2639L3.35762 12.7922L4.3795 15.2639H7.05418V11.2639ZM5.01504 6.33155V2.33155H-0.966991L1.31848 7.85977L5.01504 6.33155ZM8.3534 6.33155L12.1168 4.97639L11.1645 2.33155H8.3534V6.33155ZM11.6177 6.33155V2.33155H8.80665L7.85429 4.97639L11.6177 6.33155ZM14.985 6.33155L18.6816 7.85977L20.967 2.33155H14.985V6.33155ZM12.9459 11.2639V15.2639H15.6205L16.6424 12.7922L12.9459 11.2639ZM1.22996 12.4358V8.43581H-3.65441L-2.69155 13.2243L1.22996 12.4358ZM7.0477 12.4358L10.9692 13.2243L11.9321 8.43581H7.0477V12.4358ZM5.78613 11.2639V15.2639H11.7682L9.48268 9.73569L5.78613 11.2639ZM2.49152 11.2639L-1.20502 9.73568L-3.49054 15.2639H2.49152V11.2639ZM4.13883 7.2794L7.83538 5.75115L4.13883 -3.19012L0.44228 5.75115L4.13883 7.2794ZM15.8612 7.2794L19.5577 5.75115L15.8612 -3.19012L12.1646 5.75115L15.8612 7.2794ZM17.5085 11.2639V15.2639H23.4905L21.205 9.73569L17.5085 11.2639ZM14.2139 11.2639L10.5173 9.73569L8.2318 15.2639H14.2139V11.2639ZM12.9523 12.4358V8.43581H8.06793L9.0308 13.2243L12.9523 12.4358ZM18.77 12.4358L22.6915 13.2243L23.6544 8.43581H18.77V12.4358ZM19.4141 7.26393H18.7766V15.2639H19.4141V7.26393ZM22.4731 9.7357L20.4315 4.7973L13.0384 7.85377L15.08 12.7922L22.4731 9.7357ZM17.2743 10.289C19.5083 9.98499 21.2413 8.07734 21.2413 5.74561H13.2413C13.2413 4.007 14.5334 2.58826 16.1956 2.36206L17.2743 10.289ZM21.2413 5.74561C21.2413 3.21288 19.1881 1.15967 16.6554 1.15967V9.15967C14.7698 9.15967 13.2413 7.63116 13.2413 5.74561H21.2413ZM16.6554 1.15967H11.6177V9.15967H16.6554V1.15967ZM15.3812 3.80451C14.5889 1.60414 12.4809 0.0113525 9.98559 0.0113525V8.01135C8.99163 8.01135 8.16497 7.37763 7.85429 6.51483L15.3812 3.80451ZM9.98559 0.0113525C7.49022 0.0113525 5.38231 1.60417 4.58997 3.80444L12.1168 6.5149C11.8061 7.37768 10.9795 8.01135 9.98559 8.01135V0.0113525ZM8.3534 1.15967H3.34465V9.15967H8.3534V1.15967ZM3.34465 1.15967C0.811916 1.15967 -1.24129 3.21288 -1.24129 5.74561H6.75871C6.75871 7.63116 5.23019 9.15967 3.34465 9.15967V1.15967ZM-1.24129 5.74561C-1.24129 8.07758 0.492035 9.98499 2.72568 10.289L3.80455 2.36207C5.46648 2.58827 6.75871 4.00677 6.75871 5.74561H-1.24129ZM-0.431425 4.79727L-2.4731 9.73567L4.91998 12.7922L6.96166 7.85379L-0.431425 4.79727ZM1.22344 7.26393H0.585938V15.2639H1.22344V7.26393ZM0.585938 7.26393C-1.9468 7.26393 -4 9.31713 -4 11.8499H4C4 13.7354 2.47148 15.2639 0.585938 15.2639V7.26393ZM-4 11.8499C-4 16.3412 -0.352459 19.9887 4.13883 19.9887V11.9887C4.11514 11.9887 4.10112 11.9847 4.08983 11.9799C4.07582 11.9739 4.05865 11.9633 4.04204 11.9467C4.02542 11.93 4.01476 11.9129 4.00882 11.8989C4.00404 11.8876 4 11.8736 4 11.8499H-4ZM4.13883 19.9887C8.63012 19.9887 12.2777 16.3412 12.2777 11.8499H4.27766C4.27766 11.8736 4.27362 11.8876 4.26883 11.8989C4.2629 11.9129 4.25223 11.93 4.23562 11.9467C4.21901 11.9633 4.20183 11.9739 4.18783 11.9799C4.17654 11.9847 4.16251 11.9887 4.13883 11.9887V19.9887ZM12.2777 11.8499C12.2777 9.31713 10.2245 7.26393 7.69172 7.26393V15.2639C5.80617 15.2639 4.27766 13.7354 4.27766 11.8499H12.2777ZM7.69172 7.26393H7.05418V15.2639H7.69172V7.26393ZM10.7507 9.7357L8.71159 4.80332L1.31848 7.85977L3.35762 12.7922L10.7507 9.7357ZM5.01504 10.3315H8.3534V2.33155H5.01504V10.3315ZM4.58995 7.68671C5.38229 9.88714 7.49024 11.4799 9.98559 11.4799V3.47987C10.9795 3.47987 11.8061 4.11354 12.1168 4.97639L4.58995 7.68671ZM9.98559 11.4799C12.4809 11.4799 14.5889 9.88709 15.3812 7.68671L7.85429 4.97639C8.16497 4.11359 8.99163 3.47987 9.98559 3.47987V11.4799ZM11.6177 10.3315H14.985V2.33155H11.6177V10.3315ZM11.2884 4.80332L9.2493 9.7357L16.6424 12.7922L18.6816 7.85977L11.2884 4.80332ZM12.9459 7.26393H12.3083V15.2639H12.9459V7.26393ZM12.3083 7.26393C9.77559 7.26393 7.72238 9.31713 7.72238 11.8499H15.7224C15.7224 13.7354 14.1939 15.2639 12.3083 15.2639V7.26393ZM7.72238 11.8499C7.72238 16.3412 11.3699 19.9887 15.8612 19.9887V11.9887C15.8375 11.9887 15.8235 11.9847 15.8122 11.9799C15.7982 11.9739 15.781 11.9633 15.7644 11.9467C15.7478 11.93 15.7371 11.9129 15.7312 11.8989C15.7264 11.8876 15.7224 11.8736 15.7224 11.8499H7.72238ZM15.8612 19.9887C20.3525 19.9887 24 16.3411 24 11.8499H16C16 11.8736 15.996 11.8876 15.9912 11.8989C15.9852 11.9129 15.9746 11.9301 15.958 11.9467C15.9414 11.9633 15.9242 11.9739 15.9102 11.9799C15.8989 11.9847 15.8849 11.9887 15.8612 11.9887V19.9887ZM24 11.8499C24 9.31713 21.9468 7.26393 19.4141 7.26393V15.2639C17.5285 15.2639 16 13.7354 16 11.8499H24ZM4.13883 10.8168C4.64856 10.8168 5.05659 11.1754 5.15147 11.6473L-2.69155 13.2243C-2.0512 16.4089 0.758084 18.8168 4.13883 18.8168V10.8168ZM1.22996 16.4358H7.0477V8.43581H1.22996V16.4358ZM3.12619 11.6473C3.22107 11.1754 3.6291 10.8168 4.13883 10.8168V18.8168C7.51957 18.8168 10.3289 16.4089 10.9692 13.2243L3.12619 11.6473ZM5.78613 7.26393H2.49152V15.2639H5.78613V7.26393ZM6.18807 12.7922L7.83538 8.80764L0.44228 5.75115L-1.20502 9.73568L6.18807 12.7922ZM0.44228 8.80764L2.08958 12.7922L9.48268 9.73569L7.83538 5.75115L0.44228 8.80764ZM9.98555 2.30799C11.8846 2.30799 13.4232 3.84659 13.4232 5.74561H5.42316C5.42316 8.26487 7.46629 10.308 9.98555 10.308V2.30799ZM13.4232 5.74561C13.4232 7.64463 11.8846 9.18323 9.98555 9.18323V1.18323C7.46629 1.18323 5.42316 3.22636 5.42316 5.74561H13.4232ZM9.98555 9.18323C8.08667 9.18323 6.54793 7.64481 6.54793 5.74561H14.5479C14.5479 3.22618 12.5046 1.18323 9.98555 1.18323V9.18323ZM6.54793 5.74561C6.54793 3.84659 8.08653 2.30799 9.98555 2.30799V10.308C12.5048 10.308 14.5479 8.26487 14.5479 5.74561H6.54793ZM12.1646 8.80764L13.8119 12.7922L21.205 9.73569L19.5577 5.75115L12.1646 8.80764ZM17.5085 7.26393H14.2139V15.2639H17.5085V7.26393ZM17.9104 12.7922L19.5577 8.80764L12.1646 5.75115L10.5173 9.73569L17.9104 12.7922ZM15.8612 10.8168C16.3709 10.8168 16.7789 11.1754 16.8738 11.6473L9.0308 13.2243C9.67114 16.4089 12.4804 18.8168 15.8612 18.8168V10.8168ZM12.9523 16.4358H18.77V8.43581H12.9523V16.4358ZM14.8485 11.6473C14.9434 11.1754 15.3514 10.8168 15.8612 10.8168V18.8168C19.2418 18.8168 22.0512 16.4089 22.6915 13.2243L14.8485 11.6473Z" fill="#282739" mask="url(#path-1-inside-1_1_15994)"/>
</symbol>


  <!-- Heart / Wishlist -->
  <symbol id="icon-heart" viewBox="0 0 20 20" fill="none" xmlns="http://www.w3.org/2000/svg">
<path d="M16.3935 3.11494C16.1329 2.50538 15.757 1.95301 15.287 1.48874C14.8167 1.02308 14.2621 0.65303 13.6535 0.398708C13.0224 0.133946 12.3455 -0.00157472 11.6622 1.38048e-05C10.7034 1.38048e-05 9.76806 0.265156 8.95519 0.765979C8.76073 0.885784 8.57598 1.01737 8.40096 1.16075C8.22594 1.01737 8.0412 0.885784 7.84673 0.765979C7.03386 0.265156 6.09848 1.38048e-05 5.13975 1.38048e-05C4.4494 1.38048e-05 3.78043 0.133567 3.14842 0.398708C2.53779 0.65403 1.98745 1.0213 1.5149 1.48874C1.04428 1.95248 0.668339 2.50499 0.40838 3.11494C0.138071 3.74931 0 4.42297 0 5.11627C0 5.77028 0.132237 6.4518 0.394767 7.14509C0.614515 7.72448 0.929551 8.32546 1.3321 8.93234C1.96995 9.89275 2.84699 10.8944 3.93601 11.9098C5.74066 13.5929 7.52781 14.7556 7.60365 14.8028L8.06454 15.1013C8.26872 15.2329 8.53125 15.2329 8.73545 15.1013L9.19633 14.8028C9.27217 14.7537 11.0574 13.5929 12.864 11.9098C13.953 10.8944 14.83 9.89275 15.4679 8.93234C15.8704 8.32546 16.1874 7.72448 16.4052 7.14509C16.6677 6.4518 16.8 5.77028 16.8 5.11627C16.8019 4.42297 16.6639 3.74931 16.3935 3.11494ZM8.40096 13.5478C8.40096 13.5478 1.47795 9.06786 1.47795 5.11627C1.47795 3.11494 3.1173 1.49266 5.13975 1.49266C6.56131 1.49266 7.79423 2.29398 8.40096 3.46453C9.0077 2.29398 10.2406 1.49266 11.6622 1.49266C13.6846 1.49266 15.324 3.11494 15.324 5.11627C15.324 9.06786 8.40096 13.5478 8.40096 13.5478Z" fill="#282739"/>
</symbol>

  <!-- Cart -->
  <symbol id="icon-cart" viewBox="0 0 20 20" fill="none" xmlns="http://www.w3.org/2000/svg">
<path d="M19.1523 5.68103H15.0031L12.6756 0.351613C12.5461 0.0550898 12.2007 -0.080418 11.9042 0.0491523C11.6076 0.178645 11.4722 0.524074 11.6017 0.820637L13.7244 5.68107H6.27561L8.39827 0.820637C8.52776 0.524074 8.39237 0.178684 8.09581 0.0491523C7.79929 -0.080418 7.45382 0.0550117 7.32436 0.351613L4.99686 5.68103H0.847685C0.304911 5.68103 -0.0979012 6.17239 0.0208488 6.68962L2.20581 16.2064C2.29257 16.5843 2.63608 16.8529 3.03265 16.8529H16.9673C17.3639 16.8529 17.7074 16.5843 17.7942 16.2064L19.9791 6.68962C20.0979 6.17243 19.695 5.68103 19.1523 5.68103ZM5.1071 7.47806C5.02882 7.47806 4.94925 7.46228 4.87288 7.42892C4.57632 7.29943 4.44089 6.95404 4.57042 6.65743L5.01057 5.64954H6.28933L5.64432 7.12642C5.54819 7.34669 5.33296 7.47806 5.1071 7.47806ZM7.0703 13.7279C7.0703 14.0515 6.80796 14.3138 6.48436 14.3138C6.16077 14.3138 5.89843 14.0515 5.89843 13.7279V9.43103C5.89843 9.10743 6.16077 8.84509 6.48436 8.84509C6.80796 8.84509 7.0703 9.10743 7.0703 9.43103V13.7279ZM10.5859 13.7279C10.5859 14.0515 10.3236 14.3138 9.99999 14.3138C9.6764 14.3138 9.41405 14.0515 9.41405 13.7279V9.43103C9.41405 9.10743 9.6764 8.84509 9.99999 8.84509C10.3236 8.84509 10.5859 9.10743 10.5859 9.43103V13.7279ZM14.1016 13.7279C14.1016 14.0515 13.8392 14.3138 13.5156 14.3138C13.192 14.3138 12.9297 14.0515 12.9297 13.7279V9.43103C12.9297 9.10743 13.192 8.84509 13.5156 8.84509C13.8392 8.84509 14.1016 9.10743 14.1016 9.43103V13.7279ZM15.1271 7.42892C15.0507 7.46228 14.9712 7.47806 14.8929 7.47806C14.667 7.47806 14.4518 7.34673 14.3556 7.12646L13.7106 5.64958H14.9894L15.4295 6.65747C15.5591 6.95404 15.4236 7.29943 15.1271 7.42892Z" fill="#6F73EE"/>
</symbol>


  <!-- Burger / Catalog -->
  <symbol id="icon-burger" viewBox="0 0 18 12">
    <rect x="0" y="0" width="18" height="2" rx="1" fill="currentColor"/>
    <rect x="0" y="5" width="18" height="2" rx="1" fill="currentColor"/>
    <rect x="0" y="10" width="18" height="2" rx="1" fill="currentColor"/>
  </symbol>

<!-- HERO BANNER -->
  <symbol id="hero-banner" viewBox="0 0 1380 445" fill="none">
<rect width="1380" height="445" rx="10" fill="url(#paint0_linear_1_14904)"/>
<defs>
<linearGradient id="paint0_linear_1_14904" x1="312" y1="445" x2="787.5" y2="-4.6049e-06" gradientUnits="userSpaceOnUse">
<stop stop-color="#6F73EE"/>
<stop offset="1" stop-color="#6F73EE" stop-opacity="0"/>
</linearGradient>
</defs>
</symbol>

<symbol id="scooter" width="16" height="16" viewBox="0 0 16 16" fill="none" xmlns="http://www.w3.org/2000/svg">
<g clip-path="url(#clip0_1_14920)">
<path d="M12.9407 10.8467L10.3157 1.86234L12.0813 1.67171C12.4469 1.63109 12.7125 1.30296 12.6719 0.937337C12.6313 0.571712 12.3063 0.302962 11.9375 0.346712L6.84067 0.896712C6.47505 0.937337 6.20942 1.26546 6.25005 1.63109C6.28755 1.97171 6.57505 2.22484 6.91255 2.22484C6.93755 2.22484 6.95942 2.22484 6.98442 2.22171L8.97192 2.00921L11.6469 11.1842C11.1188 11.4936 10.7219 11.9936 10.5469 12.5873H5.45317C5.15942 11.5842 4.22505 10.8467 3.11255 10.8467C1.76567 10.8467 0.675049 11.9248 0.675049 13.253C0.675049 14.5811 1.76567 15.6592 3.11255 15.6592C4.22505 15.6592 5.15942 14.9248 5.45317 13.9186H10.5438C10.8375 14.9217 11.7719 15.6592 12.8844 15.6592C14.2313 15.6592 15.3219 14.5811 15.3219 13.253C15.3219 11.9405 14.2625 10.8748 12.9407 10.8467Z" fill="white"/>
</g>
<defs>
<clipPath id="clip0_1_14920">
<rect width="16" height="16" fill="white"/>
</clipPath>
</defs>
</symbol>


<symbol id="energy" width="16" height="16" viewBox="0 0 16 16" fill="none" xmlns="http://www.w3.org/2000/svg">
<path d="M12.1998 0H6.19959L3.80035 8.63849H6.20448L4.16032 16H4.88044L11.8393 7.36114H8.31397L12.1998 0Z" fill="white"/>
</symbol>

<symbol id="pin" width="15" height="15" viewBox="0 0 15 15" fill="none" xmlns="http://www.w3.org/2000/svg">
<path d="M11.9468 1.84193C10.7591 0.654143 9.1798 0 7.50008 0C5.82034 0 4.24111 0.654114 3.05327 1.84193C1.86551 3.02969 1.21136 4.60886 1.21136 6.2886C1.21136 7.96834 1.86551 9.54757 3.05327 10.7354L7.18936 14.8713C7.27517 14.9571 7.38764 15 7.50008 15C7.61255 15 7.72502 14.9571 7.8108 14.8713L11.9467 10.7354C13.1345 9.5476 13.7887 7.96837 13.7887 6.28863C13.7887 4.60883 13.1346 3.02966 11.9468 1.84193ZM9.47505 8.26351C8.94753 8.79103 8.24616 9.08157 7.50011 9.08157C6.75406 9.08157 6.05269 8.79106 5.5252 8.26354C4.99765 7.73602 4.70714 7.03465 4.70714 6.2886C4.70714 5.54258 4.99765 4.84121 5.5252 4.31366C6.05269 3.78614 6.75406 3.49563 7.50011 3.49563C8.24616 3.49563 8.94753 3.78614 9.47505 4.31366C10.0026 4.84115 10.2931 5.54252 10.2931 6.28857C10.2931 7.03462 10.0025 7.73602 9.47505 8.26351Z" fill="white"/>
</symbol>

</svg>
