<svg width="35" height="24" viewBox="0 0 35 24" fill="none" xmlns="http://www.w3.org/2000/svg">
<rect x="0.243409" y="0.243409" width="33.5905" height="22.8805" rx="2.6775" fill="white" stroke="#EAEBED" stroke-width="0.486818"/>
<path fill-rule="evenodd" clip-rule="evenodd" d="M10.3452 15.8296H8.28073L6.73267 9.92363C6.65919 9.65196 6.50317 9.41179 6.27368 9.29859C5.70096 9.01412 5.06985 8.78772 4.38138 8.67354V8.44616H7.707C8.16598 8.44616 8.51022 8.78772 8.5676 9.18441L9.37082 13.4446L11.4342 8.44616H13.4413L10.3452 15.8296ZM14.5887 15.8296H12.6391L14.2445 8.44616H16.1942L14.5887 15.8296ZM18.7166 10.4916C18.774 10.0939 19.1182 9.86655 19.5198 9.86655C20.1509 9.80946 20.8384 9.92364 21.4121 10.2071L21.7563 8.61744C21.1826 8.39006 20.5515 8.27588 19.9788 8.27588C18.0865 8.27588 16.7095 9.29859 16.7095 10.718C16.7095 11.7978 17.6849 12.3648 18.3733 12.7063C19.1182 13.0469 19.4051 13.2743 19.3477 13.6149C19.3477 14.1257 18.774 14.3531 18.2012 14.3531C17.5128 14.3531 16.8243 14.1828 16.1942 13.8983L15.8499 15.489C16.5384 15.7725 17.2833 15.8867 17.9717 15.8867C20.0935 15.9428 21.4121 14.9211 21.4121 13.3875C21.4121 11.4562 18.7166 11.343 18.7166 10.4916ZM28.2355 15.8296L26.6874 8.44616H25.0246C24.6804 8.44616 24.3361 8.67354 24.2214 9.01412L21.3547 15.8296H23.3618L23.7624 14.7508H26.2284L26.4579 15.8296H28.2355ZM25.3115 10.4345L25.8842 13.2172H24.2787L25.3115 10.4345Z" fill="#172B85"/>
</svg>
