<svg width="24" height="15" viewBox="0 0 24 15" fill="none" xmlns="http://www.w3.org/2000/svg">
<path fill-rule="evenodd" clip-rule="evenodd" d="M7.46515 11.533C7.61767 11.4538 7.87695 11.3498 8.15161 11.3498C8.78204 11.3498 9.1228 11.7755 9.1228 12.5676C9.1228 13.493 8.66531 13.9435 7.92794 13.9435C7.65832 13.9435 7.24139 13.8594 6.93625 13.7007V10.2461L7.46515 10.1223V11.533ZM7.46013 13.5177C7.62274 13.587 7.8008 13.5968 7.92797 13.5968C8.30425 13.5968 8.58898 13.3692 8.58898 12.5676C8.58898 11.9388 8.35506 11.7359 8.0144 11.7359C7.81088 11.7359 7.66356 11.7904 7.46013 11.8993V13.5177ZM2.04419 11.414H2.0798L2.77121 13.8841H3.32035L4.14423 10.3746H3.54923L3.03058 12.9931H2.99515L2.28818 10.3746H1.83563L1.17462 12.9931H1.13901L0.569459 10.3746H0L0.823792 13.8841H1.37284L2.04419 11.414ZM6.39752 13.7156V13.3395C6.11783 13.5028 5.86368 13.5968 5.58911 13.5968C5.06534 13.5968 4.81622 13.3344 4.81622 12.7405H6.47379V12.5575C6.47379 11.7508 6.08222 11.3498 5.44675 11.3498C4.68402 11.3498 4.29245 11.8943 4.29245 12.6465C4.29245 13.4287 4.64328 13.9435 5.49747 13.9435C5.86368 13.9435 6.16873 13.8445 6.39752 13.7156ZM5.99071 12.409H4.82652C4.88228 11.9142 5.12114 11.6815 5.43151 11.6815C5.70607 11.6815 5.96553 11.8892 5.99071 12.409ZM11.462 13.1415H11.4364L10.2974 10.3746H9.68217V13.8841H10.1398V11.3993H10.1855L11.223 13.8841H11.5483L12.5857 11.3399H12.6315V13.8841H13.1807V10.3746H12.5501L11.462 13.1415ZM13.7401 12.6465C13.7401 11.7803 14.2283 11.3498 14.8995 11.3498C15.5707 11.3498 16.059 11.7803 16.059 12.6465C16.059 13.493 15.5962 13.9435 14.8995 13.9435C14.2027 13.9435 13.7401 13.493 13.7401 12.6465ZM15.5249 12.6465C15.5249 11.9784 15.2451 11.6964 14.8994 11.6964C14.5638 11.6964 14.2739 11.9784 14.2739 12.6465C14.2739 13.3248 14.5385 13.5968 14.8994 13.5968C15.2604 13.5968 15.5249 13.3248 15.5249 12.6465ZM17.8383 11.3498C17.2538 11.3498 16.7706 11.5824 16.5418 11.716V13.884H17.0707V11.924C17.2283 11.835 17.4876 11.7457 17.6912 11.7457C17.9504 11.7457 18.1486 11.8151 18.1486 12.2061V13.884H18.6774V12.0921C18.6774 11.5824 18.4488 11.3498 17.8383 11.3498ZM21.2553 13.3395V13.7156C21.0266 13.8445 20.7217 13.9435 20.3554 13.9435C19.5013 13.9435 19.1503 13.4287 19.1503 12.6465C19.1503 11.8943 19.542 11.3498 20.3046 11.3498C20.9404 11.3498 21.332 11.7508 21.332 12.5575V12.7405H19.6743C19.6743 13.3344 19.9234 13.5968 20.4471 13.5968C20.7217 13.5968 20.9759 13.5028 21.2553 13.3395ZM19.6844 12.409H20.8488C20.8235 11.8892 20.564 11.6815 20.2894 11.6815C19.9791 11.6815 19.7404 11.9142 19.6844 12.409ZM23.8541 11.4339H23.31L22.7301 13.2553H22.6998L22.0489 11.4339H21.4896L22.4659 13.9087C22.3437 14.2749 22.1303 14.5424 21.7845 14.5424V14.9481C22.369 14.9481 22.6793 14.5919 22.9336 13.9087L23.8541 11.4339Z" fill="#0068A3"/>
<path fill-rule="evenodd" clip-rule="evenodd" d="M11.5861 0C12.2859 0 12.9486 0.158621 13.5388 0.440235C13.6315 0.483042 13.724 0.530138 13.8167 0.582136L13.4064 0.93956L12.79 0.319168L11.7497 1.2224L11.1318 0.565942L9.19378 2.26631L10.4362 3.59909L9.94796 4.01709L11.1717 5.35189L10.6863 5.76893L12.435 7.66354L13.473 6.73335L14.3704 7.73016C14.1919 7.86523 13.9975 7.99234 13.7833 8.10982C13.1343 8.47004 12.3843 8.67628 11.5861 8.67628C9.13145 8.67628 7.12944 6.72731 7.12944 4.33827C7.12944 1.94871 9.13145 0 11.5861 0ZM10.7739 4.06401L11.8336 3.13504L12.7879 4.16687L11.7282 5.09548L10.7739 4.06401ZM12.5874 4.91778L11.5275 5.84649L12.4819 6.87831L13.5417 5.94934L12.5874 4.91778ZM10.0156 2.30237L11.0754 1.37366L12.0294 2.40523L10.9696 3.33393L10.0156 2.30237ZM12.7552 1.10597L11.9604 1.80243L12.676 2.57637L13.4708 1.87964L12.7552 1.10597ZM13.3726 4.99316L14.1677 4.29643L14.8833 5.07028L14.0884 5.76683L13.3726 4.99316ZM14.8665 5.8591L14.0718 6.55591L14.7874 7.32932L15.5822 6.63277L14.8665 5.8591ZM14.3919 2.97423L14.9218 2.50984L15.3988 3.02562L14.8692 3.48993L14.3919 2.97423ZM14.2448 0.97737L13.7149 1.44168L14.1919 1.95746L14.7219 1.49315L14.2448 0.97737ZM15.0693 4.50669L15.5992 4.0423L16.0763 4.55799L15.5464 5.02239L15.0693 4.50669ZM13.4877 2.66154L12.6929 3.35835L13.4087 4.13176L14.2033 3.43521L13.4877 2.66154Z" fill="#0068A3"/>
</svg>
